<?xml version="1.0" encoding="UTF-8"?>
<svg id="Lager_2" data-name="Lager 2" xmlns="http://www.w3.org/2000/svg" xmlns:xlink="http://www.w3.org/1999/xlink" viewBox="0 0 4010 2994">
  <defs>
    <style>
      .cls-1, .cls-2, .cls-3, .cls-4, .cls-5, .cls-6, .cls-7, .cls-8, .cls-9, .cls-10, .cls-11, .cls-12, .cls-13, .cls-14, .cls-15, .cls-16, .cls-17, .cls-18, .cls-19, .cls-20, .cls-21, .cls-22, .cls-23, .cls-24, .cls-25, .cls-26, .cls-27, .cls-28, .cls-29, .cls-30, .cls-31, .cls-32, .cls-33, .cls-34, .cls-35, .cls-36, .cls-37, .cls-38, .cls-39, .cls-40, .cls-41, .cls-42, .cls-43, .cls-44, .cls-45, .cls-46, .cls-47, .cls-48, .cls-49, .cls-50, .cls-51, .cls-52, .cls-53, .cls-54, .cls-55, .cls-56, .cls-57, .cls-58, .cls-59, .cls-60, .cls-61, .cls-62, .cls-63, .cls-64 {
        stroke-width: 0px;
      }

      .cls-1, .cls-3, .cls-4, .cls-5, .cls-6, .cls-7, .cls-11, .cls-12, .cls-13, .cls-14, .cls-15, .cls-16, .cls-17, .cls-18, .cls-20, .cls-21, .cls-22, .cls-24, .cls-26, .cls-27, .cls-28, .cls-30, .cls-31, .cls-33, .cls-34, .cls-36, .cls-37, .cls-38, .cls-39, .cls-41, .cls-42, .cls-45, .cls-46, .cls-47, .cls-48, .cls-50, .cls-52, .cls-53, .cls-55, .cls-57, .cls-59, .cls-62, .cls-63, .cls-64 {
        fill: #fff;
      }

      .cls-1, .cls-25, .cls-40, .cls-56, .cls-65 {
        fill-rule: evenodd;
      }

      .cls-2 {
        fill: #1962a3;
      }

      .cls-3 {
        opacity: .18;
      }

      .cls-4 {
        opacity: .62;
      }

      .cls-5 {
        opacity: .1;
      }

      .cls-6 {
        opacity: .43;
      }

      .cls-66 {
        stroke: #b6b6b6;
      }

      .cls-66, .cls-32, .cls-67 {
        fill: none;
      }

      .cls-66, .cls-67 {
        stroke-width: 11px;
      }

      .cls-66, .cls-67, .cls-65 {
        stroke-miterlimit: 10;
      }

      .cls-7 {
        opacity: .24;
      }

      .cls-8 {
        fill: #40531b;
      }

      .cls-9 {
        fill: #343f1b;
      }

      .cls-10 {
        fill: #395a77;
      }

      .cls-11 {
        opacity: .31;
      }

      .cls-12 {
        opacity: .38;
      }

      .cls-13 {
        opacity: .76;
      }

      .cls-14 {
        opacity: 0;
      }

      .cls-15 {
        opacity: .07;
      }

      .cls-16 {
        opacity: .04;
      }

      .cls-17 {
        opacity: .19;
      }

      .cls-18 {
        opacity: .27;
      }

      .cls-19, .cls-25 {
        fill: #759545;
      }

      .cls-20 {
        opacity: .13;
      }

      .cls-21 {
        opacity: .03;
      }

      .cls-22 {
        opacity: .29;
      }

      .cls-23 {
        fill: #658351;
      }

      .cls-24 {
        opacity: .33;
      }

      .cls-26 {
        opacity: .21;
      }

      .cls-27 {
        opacity: .95;
      }

      .cls-28 {
        opacity: .52;
      }

      .cls-29 {
        fill: url(#Namnlös_övertoning_35);
        opacity: .61;
      }

      .cls-30 {
        opacity: .71;
      }

      .cls-31 {
        opacity: .9;
      }

      .cls-33 {
        opacity: .15;
      }

      .cls-34 {
        opacity: .25;
      }

      .cls-35 {
        fill: #344728;
      }

      .cls-36 {
        opacity: .57;
      }

      .cls-37 {
        opacity: .22;
      }

      .cls-38 {
        opacity: .01;
      }

      .cls-39 {
        opacity: .67;
      }

      .cls-40, .cls-51, .cls-65 {
        fill: #4f4f4e;
      }

      .cls-41 {
        opacity: .12;
      }

      .cls-42 {
        opacity: .1;
      }

      .cls-43 {
        fill: #2e4759;
      }

      .cls-44, .cls-61 {
        fill: #456990;
      }

      .cls-45 {
        opacity: .19;
      }

      .cls-46 {
        opacity: .06;
      }

      .cls-47 {
        opacity: .86;
      }

      .cls-48 {
        opacity: .16;
      }

      .cls-49 {
        fill: #73c1c6;
        opacity: .38;
      }

      .cls-67 {
        stroke: #8b8b8b;
      }

      .cls-50 {
        opacity: .3;
      }

      .cls-68 {
        clip-path: url(#clippath);
      }

      .cls-52 {
        opacity: .05;
      }

      .cls-53 {
        opacity: .14;
      }

      .cls-54 {
        fill: url(#Namnlös_övertoning_4);
      }

      .cls-55 {
        opacity: .81;
      }

      .cls-56 {
        fill: #839f72;
      }

      .cls-57 {
        opacity: .24;
      }

      .cls-58 {
        fill: #333;
      }

      .cls-60 {
        fill: #556f44;
      }

      .cls-61 {
        opacity: .19;
      }

      .cls-65 {
        stroke: #556f44;
      }

      .cls-62 {
        opacity: .48;
      }

      .cls-63 {
        opacity: .09;
      }

      .cls-64 {
        opacity: .28;
      }
    </style>
    <clipPath id="clippath">
      <path class="cls-32" d="M4010,2994H0V0h4010v2994Z"/>
    </clipPath>
    <linearGradient id="Namnlös_övertoning_4" data-name="Namnlös övertoning 4" x1="1944.5" y1="888" x2="1944.5" y2="-11" gradientUnits="userSpaceOnUse">
      <stop offset="0" stop-color="#d4e6eb"/>
      <stop offset=".29" stop-color="#cfe3e9"/>
      <stop offset=".44" stop-color="#b7d6de"/>
      <stop offset=".62" stop-color="#a5cbd5"/>
      <stop offset=".8" stop-color="#99c5cf"/>
      <stop offset="1" stop-color="#96c3ce"/>
    </linearGradient>
    <radialGradient id="Namnlös_övertoning_35" data-name="Namnlös övertoning 35" cx="3674.98" cy="-67.24" fx="3674.98" fy="-67.24" r="632" gradientUnits="userSpaceOnUse">
      <stop offset="0" stop-color="#d3b600" stop-opacity=".5"/>
      <stop offset=".05" stop-color="rgba(215, 178, 3, .45)" stop-opacity=".45"/>
      <stop offset=".23" stop-color="rgba(229, 166, 12, .29)" stop-opacity=".29"/>
      <stop offset=".41" stop-color="rgba(240, 157, 20, .16)" stop-opacity=".16"/>
      <stop offset=".6" stop-color="rgba(248, 151, 25, .07)" stop-opacity=".07"/>
      <stop offset=".79" stop-color="rgba(253, 147, 28, .02)" stop-opacity=".02"/>
      <stop offset="1" stop-color="#ff921e" stop-opacity="0"/>
    </radialGradient>
  </defs>
  <g id="Lager_1-2" data-name="Lager 1">
    <g class="cls-68">
      <g>
        <polygon class="cls-54" points="4017 -11 4017 770 2732.52 770 2377.77 494 2025.55 770 1273.69 770 1214.15 753.05 943.52 675.99 929.3 671.94 880.81 658.13 866.29 654 832.59 657.96 609.74 684.14 -32.65 856 -128 888 -120.97 -11 4017 -11"/>
        <polygon class="cls-49" points="2633.26 364.49 2486.63 631.68 4040.46 286.2 4062.37 55.32 2633.26 364.49"/>
        <polygon class="cls-61" points="4103.36 52.67 4084.56 284.46 4002 304.42 2822.96 589.51 2644.96 632.55 2612.45 640.41 2611.62 640.61 2566.5 651.52 2482.02 671.94 2459.15 677.48 2437.14 682.8 2417.94 687.44 2422.49 679.29 2434.41 657.96 2473.36 588.25 2547.35 455.84 2570.33 414.72 2610.96 405.12 4002 76.61 4061.69 62.51 4103.36 52.67"/>
        <polygon class="cls-43" points="928.94 732.44 764.98 567.73 642.86 546 532.35 593.83 418.74 556.2 314.47 616.11 307.45 681.81 235.32 809.36 376.67 831 644.84 829.56 928.94 732.44"/>
        <polygon class="cls-43" points="1374.97 767 1517.97 767 1580.54 757.08 1586.91 756.07 1733.42 732.84 1734.54 732.66 1756.48 729.18 1767.54 727.43 1782.84 725 1797.64 717.27 1836.1 697.18 1913.15 656.94 1943.22 641.23 2041.7 589.8 2048.97 586 2048.87 585.92 2020.69 565.13 1981.67 536.34 1943.52 508.18 1870.1 454 1861.97 448 1737.97 445 1694.25 472.43 1655.88 496.51 1635.97 509 1517.97 489 1458.58 536.38 1430.85 558.51 1423.97 564 1426.97 630 1418.72 651.74 1409.13 677 1389.01 730.02 1385.65 738.85 1374.97 767"/>
        <polygon class="cls-10" points="-258.22 633.91 -84.07 480.02 39.19 466.15 146.42 520.94 262.2 490.65 362.43 557.11 365.24 623.12 429.07 755.02 286.62 767.58 -18.52 813.56 -223.47 937.03 -258.22 633.91"/>
        <polygon class="cls-10" points="2408.87 540 2206.37 402 2072.09 399 1961.63 463 1994 611 2408.87 540"/>
        <polygon class="cls-10" points="849.97 623 1036.97 485 1160.97 482 1262.97 546 1380.97 526 1474.97 601 1471.97 667 1523.97 804 1380.97 804 1072.97 823 857.97 928 849.97 623"/>
        <polygon class="cls-44" points="784.84 645 985.84 467 1130.37 504 1243.7 568 1374.8 548 1479.23 623 1475.9 689 1533.68 826 1374.8 826 1032.6 845 793.73 950 784.84 645"/>
        <polygon class="cls-43" points="3163.9 847.44 3327.86 682.73 3449.98 661 3560.49 708.83 3674.1 671.2 3778.37 731.11 3785.39 796.81 3857.52 924.36 3716.17 946 3448 944.56 3163.9 847.44"/>
        <polygon class="cls-43" points="3103.87 860 2960.87 860 2898.3 850.08 2891.93 849.07 2745.42 825.84 2744.3 825.66 2722.36 822.18 2711.3 820.43 2696 818 2681.2 810.27 2642.74 790.18 2565.69 749.94 2535.62 734.23 2437.14 682.8 2429.87 679 2429.97 678.92 2458.15 658.13 2497.17 629.34 2535.32 601.18 2608.74 547 2616.87 541 2740.87 538 2784.59 565.43 2822.96 589.51 2842.87 602 2960.87 582 3020.26 629.38 3047.99 651.51 3054.87 657 3051.87 723 3060.12 744.74 3069.71 770 3089.83 823.02 3093.19 831.85 3103.87 860"/>
        <polygon class="cls-44" points="-224.16 604 -52.66 466 61.06 463 154.61 527 262.83 507 349.04 582 346.28 648 393.97 785 262.83 785 -19.64 804 -216.82 909 -224.16 604"/>
        <polygon class="cls-44" points="2665 675 2509.06 675 2489.02 675.99 2459.15 677.48 2429.97 678.92 2422.49 679.29 2324.71 684.14 2173.18 691.66 1987.04 764.74 1938.72 783.71 1938.02 762.28 1930 516.32 1965 495.56 1968.32 493.59 2125.73 400.2 2133.92 395.34 2269.15 392.71 2380.38 448.82 2509.06 431.28 2547.35 455.84 2573.81 472.81 2611.57 497.03 2608.74 547 2608.29 554.89 2629.54 599.9 2644.96 632.55 2654.22 652.16 2665 675"/>
        <path class="cls-35" d="M1437,738.55s-383.42,101.21-632,92.48c-248.57-8.73-408.49-20.67-599.68,8.07-191.19,28.73-332.72,29.54-332.72,29.54,0,0,339.83-157.63,371.01-166.16s295.42-71.41,381.65-80c86.23-8.59,215.61-3.2,265.35,6.48,49.75,9.68,132.38,63.76,194.16,63.48s265.47,10.24,265.47,10.24l86.75,35.88Z"/>
        <g>
          <ellipse class="cls-8" cx="1065.84" cy="783.42" rx="96.25" ry="66" transform="translate(-105.94 169.67) rotate(-8.67)"/>
          <ellipse class="cls-8" cx="834.57" cy="792.53" rx="96.25" ry="66" transform="translate(-109.96 134.9) rotate(-8.67)"/>
          <ellipse class="cls-8" cx="953.78" cy="778.26" rx="96.25" ry="66" transform="translate(-106.45 152.72) rotate(-8.67)"/>
        </g>
        <path class="cls-9" d="M2310.44,610.17s-450.64-65.49-717.07,13.43c-266.44,78.92-435.67,140-652.85,142.83-217.19,2.83-370.89,38.33-370.89,38.33,0,0,422.89,168.92,459.64,174.73,36.75,5.81,344.94,39.73,441.38,31.32,96.45-8.4,234.83-50.87,285.4-79.61,50.58-28.74,121.45-138.53,188.53-154.14,67.07-15.61,284.24-85.77,284.24-85.77l81.63-81.13Z"/>
        <path class="cls-23" d="M2117.28,660.13s-341.35-19.78-564.84,53.46c-223.49,73.23-365.08,129.83-549.24,132.98s-313.4,36.19-313.4,36.19c0,0,364.16,154.24,395.52,159.49,31.36,5.25,293.89,35.65,375.44,27.68,81.55-7.97,197.57-47.37,239.56-73.92,41.98-26.55,98.58-127.67,154.98-142.19,56.4-14.52,238.37-79.58,238.37-79.58l23.62-114.1Z"/>
        <polygon class="cls-10" points="3382.87 738 3195.87 600 3071.87 597 2969.87 661 2851.87 641 2757.87 716 2760.87 782 2708.87 919 2851.87 919 3159.87 938 3374.87 1043 3382.87 738"/>
        <polygon class="cls-10" points="4118.17 569 3931.17 431 3807.17 428 3705.17 492 3587.17 472 3493.17 547 3496.17 613 3444.17 750 3587.17 750 3895.17 769 4110.17 874 4118.17 569"/>
        <polygon class="cls-44" points="4090 569 3918.5 431 3804.78 428 3711.23 492 3603.01 472 3516.8 547 3519.56 613 3471.87 750 3603.01 750 3885.48 769 4082.66 874 4090 569"/>
        <polygon class="cls-44" points="3444 764 3243 586 3098.47 623 2985.14 687 2854.04 667 2749.61 742 2752.94 808 2695.17 945 2854.04 945 3196.24 964 3435.11 1069 3444 764"/>
        <path class="cls-60" d="M4387.42,770.26s-426.01-230.3-663.06-138.55c-237.05,91.76-386.23,171.27-587.22,126.91-200.99-44.36-339-10.85-339-10.85,0,0,413.33,424.34,448.13,444.03,34.8,19.69,324.78,156.13,413.13,161.99,88.35,5.86,211.28-44.67,254.55-88.74,43.27-44.07,95.13-240.52,155.34-255.37,60.21-14.85,252.69-100.95,252.69-100.95l65.45-138.46Z"/>
        <path class="cls-35" d="M4449.97,767.3s-393.46-49.42-638.68-7.77c-245.21,41.65-402.14,74.71-595.45,71.61-193.31-3.1-333.7,14.89-333.7,14.89,0,0,357.74,111.12,389.78,115.44s302.29,31.56,388.9,28.63c86.61-2.93,214.12-25.45,262.14-41.65,48.02-16.19,122.75-80.77,184.02-88.69,61.27-7.92,261.77-45.39,261.77-45.39l81.22-47.08Z"/>
        <g>
          <ellipse class="cls-8" cx="3530.26" cy="883.29" rx="96.25" ry="66"/>
          <ellipse class="cls-8" cx="3420.26" cy="861.29" rx="96.25" ry="66"/>
          <ellipse class="cls-8" cx="3300.25" cy="857.43" rx="96.25" ry="66"/>
        </g>
        <g>
          <ellipse class="cls-8" cx="3888.25" cy="989.54" rx="96.25" ry="148.54"/>
          <ellipse class="cls-8" cx="4008.26" cy="998.24" rx="96.25" ry="148.54"/>
        </g>
        <g>
          <ellipse class="cls-19" cx="1877.28" cy="805.77" rx="96.25" ry="66" transform="translate(-144.87 1096.23) rotate(-31.4)"/>
          <ellipse class="cls-19" cx="1981.72" cy="746.54" rx="96.25" ry="66" transform="translate(-98.7 1141.97) rotate(-31.4)"/>
        </g>
        <path class="cls-9" d="M4101.5,1171.91s-342.21-332.41-603.74-334.08c-261.52-1.66-433.15,15.43-615.39-87.8-182.24-103.23-328.06-120.8-328.06-120.8,0,0,267.06,489.97,294.74,517.86,27.67,27.89,267.18,237.21,351.7,271.22,84.52,34.01,221.1,32.42,277.66,9.94,56.57-22.47,170.82-169.13,234.51-161.66,63.69,7.47,279.79-.85,279.79-.85l108.79-93.84Z"/>
        <path class="cls-2" d="M1046.2,999.02c-16.51-17.44,6.78-46.39,56.57-70.1,100.1-47.66,268.47-121.84,377.7-137.96,163.84-24.18,176.41,6.31,221.44,19.23,45.03,12.91,101.29,6.2,70.64,43.05-30.64,36.85-97.38,52.74-97.76,90.39-.37,37.65-177.07,101.72-261.96,113.3-84.88,11.58-244.73,25.58-280.77,13.56-22.4-7.48-60.36-44.51-85.87-71.46Z"/>
        <g>
          <ellipse class="cls-8" cx="3247.25" cy="1112.36" rx="96.25" ry="66"/>
          <ellipse class="cls-8" cx="3017.25" cy="1086.5" rx="96.25" ry="66"/>
          <ellipse class="cls-8" cx="3137.25" cy="1090.36" rx="96.25" ry="66"/>
        </g>
        <path class="cls-23" d="M4131.5,1178.5s-312-170-533-121-363,99-534,33-297-55-297-55c0,0,307,429,335,451s265,181,342,198,192-11,236-44,116-199,171-204,236-55,236-55l44-203Z"/>
        <g>
          <ellipse class="cls-19" cx="3843.29" cy="1349.08" rx="96.25" ry="66" transform="translate(-221.36 1612.83) rotate(-23.05)"/>
          <ellipse class="cls-19" cx="3955.22" cy="1305.64" rx="96.25" ry="66" transform="translate(-195.4 1653.2) rotate(-23.05)"/>
        </g>
        <path class="cls-25" d="M2875.21,1176.63c-3.82,10.12-2.83,21.13,2.77,30.57,38.71,65.24,210.2,324.2,457.02,254.57,178.61-50.39,260.71-80.12,296.87-95.14,16.12-6.69,26.34-20.92,26.13-36.46l-1.92-144.39c-.37-27.77-32.5-46.54-62.15-36.3-143.9,49.72-496.43,154.2-569.98,13.54-76.61-146.51-131.73-31.39-148.73,13.6Z"/>
        <path class="cls-56" d="M3018.9,1457.69s171.35,67.93,409.77,1.9c238.42-66.04,272.98-80.32,272.98-80.32l-11.66-62.47s-453.2,143.33-540,108.59c-86.8-34.74-131.1,32.3-131.1,32.3Z"/>
        <path class="cls-56" d="M2667.43,660.96s-18.65,93.88,37.41,209.48c56.06,115.59,66.59,131.91,66.59,131.91l30.82-11.81s-115.66-218.06-106.05-265.64-28.78-63.94-28.78-63.94Z"/>
        <path class="cls-60" d="M52,845c-79.56,26.78-216.64,51.19-252.59,64.37-10.27,3.76-16.69,13.99-15.62,24.88l4.65,47.48c1.38,14.12,14.63,23.97,28.54,21.22,58.42-11.53,200.9-40.69,276.03-64.95,96-31,200-108,294-105s281.4,69.57,330,96c114,62,245,126,426,163s334,42,440,2c96.48-36.41,185.17-96.9,200.67-105.68,1.51-.85,2.91-1.86,4.2-3.02,27.51-24.71,355.39-301.06,650.13-273.31,39.89,3.76,71.85,11.42,97.62,22.23,11.13,4.67,21.11,9.93,30.07,15.71,130.6,84.24,46.65,280.13,184.31,399.06,169,146,198,182,231,300s162,93,246,144,112.42,115.58,154,168c11.5,14.5,13.58,46.09,21.5,47.5,7.11,1.26-1-28,22.72-39.85,19.31-9.66,95.22-16.94,134.28-3.15,28.65,10.12,24.48,46.48,34,56,16.69,16.69,6-36,30.35-63.22,28.26-31.6,73.68-44.37,95.15-92.28,62.53-139.56,189.12-191.25,261.43-189.29,12,.32,22.35-8.38,24.32-20.22l9.24-55.45,10.76-64.57h0c2.48-14.91-9.25-28.34-24.36-27.95-19.3.5-41.81,4.54-65.61,12.66-20.59,7.02-42.15,17.1-63.42,30.61-26.23,16.67-52.03,38.55-75.03,66.32-18.7,22.56-35.55,49-49.31,79.7-69,154-225.52,148.69-291.52,137.69s-121-96-205-147c-.35-.21-.7-.43-1.06-.64-9.28-5.6-18.7-10.84-28.17-15.9-33.69-17.98-67.9-33.59-98.09-54.51-35.19-24.37-64.92-55.96-81.99-106.94-1.31-3.89-2.54-7.89-3.69-12.01-20.8-74.37-32.86-103.46-81.24-151.34-11.62-11.51-25.33-24.1-41.77-38.66-22.22-19.68-49.41-42.97-83.12-72.07-2.26-1.95-4.55-3.93-6.87-5.93-12.9-11.14-24.17-23-34.12-35.41-12.76-15.9-23.35-32.71-32.44-50.09-.75-1.43-1.48-2.86-2.21-4.29-3.62-7.15-7-14.4-10.18-21.71-6.9-15.87-12.86-32.05-18.34-48.32-.11-.31-.21-.61-.31-.92-5.53-16.45-10.57-32.97-15.6-49.33-5.25-17.09-10.5-33.99-16.27-50.43-8.48-24.19-18.1-47.38-30.58-68.69,0,0,.01,0,0-.01-5.34-9.14-11.22-17.93-17.75-26.3-9.61-12.32-20.64-23.73-33.52-34.01-.24-.2-.48-.39-.73-.58-12.81-10.13-27.44-19.15-44.31-26.85-10.11-4.62-21.02-8.76-32.82-12.38-8.82-2.7-18.14-5.11-27.99-7.21-10.68-2.28-21.99-4.2-33.97-5.72-5.16-.66-10.45-1.24-15.86-1.75-183.71-17.3-371.14,77.93-492.5,157.61-9.4,6.17-18.41,12.25-26.98,18.17-59.31,40.99-98.11,74.66-105.65,81.33-.92.82-1.9,1.55-2.94,2.22l-134.43,86.17s-272,165-426,134-513-232-618-262c-104.2-29.77-171-70-353-40"/>
        <path class="cls-67" d="M4021.93,1378.38c-66-14-213,33-282,187s-225.52,148.69-291.52,137.69-121-96-205-147-180-72-213-190-44-122-213-268-59-415-367-444-626.48,258.31-626.48,258.31c0,0-401.43,251.12-615.43,163.12s-594-270-715-303S-89.5,943.5-89.5,943.5"/>
        <path class="cls-66" d="M4011.48,1374.26c-66-14-246.55,33.11-315.55,187.11s-225.52,148.69-291.52,137.69-121-96-205-147-180-72-213-190-44-122-213-268-59-415-367-444-626.48,258.31-626.48,258.31c0,0-252.43,189.12-527.43,156.12s-617-276-831-259-605,105-605,105"/>
        <path class="cls-66" d="M3352.29,1675.3s55.21,54.2,50.21,133.2"/>
        <path class="cls-67" d="M3647.9,1673s-55.21,59.76-50.21,146.85"/>
        <circle class="cls-29" cx="3674.98" cy="-67.24" r="632"/>
        <g>
          <path class="cls-65" d="M3400.38,1863.95c-4.36,1.32-8.32-.46-21.2,4.77-11.77,4.76-23.15,11.35-32.76,19.19-7.21,5.88-22.3,18.12-25.39,26.96-.97,2.79-1.65,7.41-2.24,10.54-4.42,23.61-8.34,134.89-9.28,160.56-.19,5.28-1.38,21.15.12,25,1.33,3.43,3.41,4.79,6.16,6.63,6.16,4.1,13.7.35,20.22-1.36,5.12-1.33,6.63-.77,11.8-.71,4.35.05,23.17-.27,25.81.55-4.45,2.22-29.62-.15-36.34,3.05-4.05,1.93-3.63,3.51-6.36,7.17-1.65,1.04-37.35-2.3-41.64-1.15-6.39,1.7-4.69,6.36-7,7.96-4.14,0-6.43-.38-9.51,1.5-2.78,1.71-3.51,3.48-5.29,6.15-4.81.59-10.71-.23-14.6.29-11.44,1.53-13.89,25.7-15.14,34.76-1.85,13.43-1.76,32.88,2.16,46.16,1.44,4.88,3.11,7.79,6.84,9.92-.46,1.25-1.41.77-1.48,1.97,5.88.03,11.83.89,18.08,1,5.9.1,12.44.46,18.53.77l37.93.84c12.77-.02,25.26.6,37.93.6,12.73,0,25.5.26,38.34.41,51.15.6,102.06.59,153.36.59,25.5,0,51.42.36,76.68-.21,25.57-.57,51.29.34,76.68-.4,12.59-.36,25.44-.4,37.93-.4,18.93,0,37.82-.91,56.89-1,7.58-.04,51.19-1.18,55.64-2.46-1.51-1.51-13.17-1.84-16.08-1.93-12.07-.38-23.69-1.03-35.86-1.01-2.99,0-15.88.02-17.94-.57,1.57-1.51,1.56-.91,3.79-1.6,10.02-3.1,19.58-9.47,26.62-16.65,5.83-5.95,11.2-13.76,15.02-21.68,1.37-2.85,2.55-6.03,3.81-8.48,18.64-2.93,38.2,3.6,49.59-16.44,5.03-8.84,3.81-18.01,3.81-29.37l-.79-24.3c-.11-3.26-1.11-3.9-3.28-5.21-6.25-3.78-8.49-2.16-9.18-7.22-1.75-12.85-7.62-24.34-15.06-34.49-2.54-3.46-4.81-5.79-7.74-8.76-4.87-4.94-2.9-3.93-4.21-12.24-1.55-9.76-2.54-19.71-4.31-29.13-1.79-9.5-3.39-18.45-5.22-27.76-1.84-9.32-3.74-17.92-8.77-24.21-9.25-11.56-17.35-13.88-31.47-18.01-22.73-6.66-46.15-11.07-70.5-12.76-5.15-.36-10.24-.81-15.29-1.14-5.11-.33-10.41-.57-15.57-1.04-5.17-.47-10.47-.46-15.76-.74-16.37-.86-16.16,2.01-17.6-5.41-.42-2.17-1.23-3.6-.15-4.89,1.71-2.03,5.19-4.17,7.23-6,8.1-7.26.51-9.59-6.59-12.3l-27.92-10.85c-2.29-.84-7.95-2.36-9.07-4.24,0-8.45-2.73-24.19-8.73-39.19-1.07-3.24-8.42-20.56-9.96-23.34-1.72-3.1-2.37-5.81-6.19-6.6-7.58-1.56-14.33,5.67-10.73,12.38,4.74,8.86,18.64,38.24,17.95,50.22-4.34-.23-3.35-1.54-4.35-4.75-1.86-6.02-6.72-6.47-11.79-4.92-1.39.43-2.06.59-3.41,1.12-7.05,2.72-1.84-1.96-6.51-7.07-1.67-1.83-5.23-2.73-8.47-1.7-8.13,2.57-11.95,7.81-13.6,8.08-1.84-4.19-1.32-11.56-9.14-11.79-5.15-.15-11.61,3.92-14.34,6.6-2.81,2.75-1.77,2.82-7.03,2.26-12.5-1.35-37.87-4.86-48.69-3.88-2.79.25-5.84.93-8.57,1.64-4.33,1.12-3.75,2.13-8.22.6-6.15-2.09-12.43-1.59-19.49-1.6-10.03-.02-6.76,3.07-18.12,2.01-2.05-.19-1.98-.54-1.92-2.69.04-1.55-.03-2.64.09-4.38.57-8.61.59-22.39-1.48-29.92-1.5-5.45-4.15-10.05-6.51-14.53-2.71-5.13-4.22-9.63-10.87-10.06-9.25-.59-16.23,8.55-11.98,16.02,4.59,8.05,8.18,13.16,8.19,23.43,0,5.33.27,15.74-.47,20.82"/>
          <path class="cls-1" d="M3735.66,2229.31c-1.84-1.25-4.27-1.92-6.69-2.97-2.25-.98-4.56-2.09-6.59-3.31-10.26-6.19-13.66-10.03-21.22-18.36-7.28-8.04-1.97-7.42-12.42-7.4-12.74.04-25.73-.83-38.75-.8-12.79.03-25.76-1.18-38.33-.77-1.8,3.3-3.68,6.36-5.61,9.58-3.9,6.48-7.95,11.34-13.29,16.4-3.09,2.93-7.59,5.01-8.01,6.96,25.4,0,50.24.2,75.55.2l75.36.45"/>
          <path class="cls-1" d="M3523.9,2196.52c-4.94-1.07-5.27-10.33.36-9.24,5.78,1.12,5.9,10.59-.36,9.24ZM3508.35,2188.23c.32,6.97-6.36,4.51-6.36-1.65,0-6.59,6.08-4.36,6.36,1.65ZM3548.43,2181.7c.29,6.16-10.45,4.37-10.45-.9,0-6.43,10.19-4.68,10.45.9ZM3491.16,2165.81c2.69-1.31,5.14,5.06,2.95,8.28-4.47.34-4.89-7.32-2.95-8.28ZM3551.9,2164.79c-7.18-1.36-4.52-11.51,3.05-9.79,7.07,1.6,4.91,11.3-3.05,9.79ZM3489.19,2149.81c-3.68-6.2,3.81-12.36,3.81-5.29,0,2.74-.54,5.56-3.81,5.29ZM3554.96,2131.15c3.65,2.43,0,7.76-4.73,7.76-9.77,0-2.21-12.36,4.73-7.76ZM3508.68,2179.48c14.75,7.84,30.94-6.82,30.88-27.95-.07-25.03-22.53-38.61-37.33-22.45-1.38,1.51-4.02,4.01-4.44,6.44-.47-1.09.58-2.59,1.11-3.59.75-1.41,1.55-2.4,2.23-3.5-.09-.06-.24-.19-.29-.1,0,0-3.2-.09-2.23-4.51.51-2.31,1.41-3.72,3.79-3.86,2.05,2.16,1.1,3.06.59,5.81,2.14-.88,3.84-3.13,6.9-4.69,17.34-8.84,39.68,8.71,35.58,37.63-3.21,22.64-27.74,35.73-43.45,17.51-.81-.94-4.81-5.36-3.63-6.9,2.48,4.34,5.42,7.56,10.28,10.14ZM3535.24,2121.98c-4.73-1.4.24-9.98,5.66-8.16,4.85,1.63-.57,9.67-5.66,8.16ZM3521.95,2112.34c-.16,2.32-2.93,6.62-5.71,4.83-2.85-1.84,1.51-9.49,4.68-7.35.91.62,1.14.83,1.03,2.53ZM3526.1,2103.49c-5.98-.75-13.39,1.9-17.87,4.39-14.47,8.05-23.65,26.66-23.63,44.07.05,53.43,52.24,69.57,73.17,29.8,4.15-7.89,6.82-17.02,6.79-26.5-.05-18.5-6.59-36.88-21.67-46.25-5.73-3.56-9.24-4.55-16.8-5.51"/>
          <path class="cls-1" d="M3705.33,2085.96c0-3.1-8.77-15.7-10.74-18.59-5.95-8.69-12.89-16.24-20.33-23.79l-7.49-6.95c-26.69-21.58-48.49-31.08-83.95-33.13-5.47-.31-23.55.3-27.32,1.98,4.65.33,9.35-.13,14.12.07,18.5.76,38.49,5.3,54.11,14.77,2.17,1.31,14.9,8.93,16.01,11.24-1.61-.21-6.14-2.87-8.19-3.79-9.86-4.46-14.16-6.44-25.28-9.79-33.77-10.18-65.79-13.11-97.48,3.43-2.81,1.47-12.72,7.41-13.97,9.35,2.16-.54,4.09-2.02,6.2-3.1,16.01-8.12,32.84-10.3,50.44-5.99,12.99,3.18,24.19,10.8,32.81,19.97,2.99,3.18,5.3,5.54,7.86,9.28,8.94-.12,21.97-2.23,32.56-1.47,18.69,1.34,54.21,1.97,61.04,24.73,1.91,6.36-3.4,10.29-4.13,11.8l.57.13c.08.01.21.04.3.05.09.01.22.02.31.03.16.01,1.06,0,1.29,0l21.26-.23"/>
          <path class="cls-1" d="M3818.46,1971.2c.17-3.4-9.74-11.2-16.07-13.31-16.34-5.43-32.98-7.28-49.21-10.09-14.93-2.59-40.19-4.11-55.38-3.61-4.52.15-7.03,3.49-7.46,7.36-.84,7.59,5.92,56.62,7.77,65.69,3.8,18.69,5.87,29.68,10.71,48.67,2.24,8.78,3.37,15.41,11.9,17.76,3.08.85,22.3,1.33,27.54,1.75,9.43.77,18.99.83,28.3,1.36l56.04,2.96c8.34.36,6.5,1.22,6.01-7.06-.13-2.26-.48-4.4-.64-6.61l-.45-5.32c-.03-.1-.08-.26-.1-.34-.02-.08-.1-.15-.12-.33s-.08-.23-.13-.33c-2.24,5.13,3.5,14.31-12.28,13.14l-71.87-4.55c-24.61-1.45-28.44,1.01-31.92-19.34-3.56-20.79-7.85-44.91-10.52-65.82-.96-7.53-1.81-15.01-3-22.53-1.08-6.84-3.96-17.93,3.49-19,5.29-.76,39.16,3.32,46.39,4.54,14.74,2.48,28.52,4.23,43.71,7.45,3.46.74,7.22,1.25,10.16,2.62,3.64,1.69,4.66,3.14,7.14,4.93"/>
          <path class="cls-1" d="M3876.55,2121.23c.73-.82.47-2.01.46-3.49-.08-7.43.66-6.49-4.1-7.71-15.15-3.91-24.9-4.87-41.09-5.92-5.05-.33-9.92-.79-14.9-1.13-4.82-.33-9.92-.53-14.76-1-9.72-.95-19.67-.95-29.61-1.72-19.86-1.52-40.84-.76-61.07-1.98-16.92-1.02-44.05-1.35-61.46-1.35-20.72,0-33.5.75-54.02,1.98-5,.31-35.81,3.49-38.34,4.85-.44,1.24,1.64,7.57,2.04,9.11,2.66-.06,7.98-1.17,10.76-1.69,3.48-.65,6.98-1,10.56-1.51,14.81-2.11,40.18-3.7,55.33-3.35,3.57.08,7.85.39,11.63.39-2.45.98-16.23,1.24-20.4,1.74-6.72.83-12.92,1.38-19.57,2.31-5.72.8-32.15,5.28-36.13,7.21l30.43-3.46c22.89-3.28,66.29-4.2,90.14-4.2h34.24c20.97,0,58.42.89,79.01,2.25,20.47,1.35,43.12,3.35,63.18,7.66,1.38.3,2.71.5,4.12.83,2.69.64,2.74.97,3.55.18"/>
          <path class="cls-1" d="M3418.09,2057.43c-4.97-.84-4.54-7.68-.08-6.24,4.31,1.39,4.72,7.02.08,6.24ZM3395.54,2056.84c-3.94-1.34.11-7.75,3.87-6.04,3.87,1.77-.38,7.23-3.87,6.04ZM3406.21,2055.6c-3.88-1.25-1.7-7.48,2.82-5.75,4.06,1.55,2.19,7.37-2.82,5.75ZM3409.92,2043.78c1.33-2.64,7.31-1.79,6.29,3.96-3.76,2.31-8.14-.31-6.29-3.96ZM3400.88,2048.18c-3.71-1.39-.64-7.86,3.83-5.58,3.7,1.89.31,7.13-3.83,5.58ZM3416.16,2036.07c5.4-.41,6.23,4.1,5.17,5.49-1.88,2.47-6.26.13-6.49-3.41l1.32-2.08ZM3406.52,2040.51c-3.68-1.26-1.76-7.39,2.6-5.74,4.58,1.73,2.13,7.36-2.6,5.74ZM3400.81,2036.3c2.04,2.66-1.7,6.6-6.02,4.9-1.8-5.28,4.2-7.28,6.02-4.9ZM3416.62,2032.24c-.76,1.84-3.43,1.7-4.84.92-3.82-2.11-1.36-7.42,2.65-5.31,1.37.72,3.15,2.05,2.19,4.39ZM3401.54,2033.11c-4.43-1.16-.65-7.87,3.21-5.81,3.58,1.91,1.21,6.96-3.21,5.81ZM3415.65,2021.48c4.83-1.46,6.67,1.85,6.26,5.02-3.79,2.52-7.58-.42-6.26-5.02ZM3399.59,2020.19c3.43.87,2.39,6.38-2.71,6.37-3.98,0-1.8-7.51,2.71-6.37ZM3407.13,2025.43c-4.26-1.5-1.44-7.71,2.76-5.66,3.99,1.95,1.56,7.18-2.76,5.66ZM3412.63,2018.3c-4.66-1.51-1.87-8.19,2.54-5.45,3.69,2.29,2.17,6.98-2.54,5.45ZM3401.89,2018c-4.16-1.24-.93-7.37,2.95-5.99,4.44,1.59,1.36,7.28-2.95,5.99ZM3417.93,2005.93c3.7-.29,6.9,6.44,2.03,6.44-4.8,0-6.12-6.13-2.03-6.44ZM3399.74,2005.02c3.94.6,2.61,6.36-2.44,6.36-3.99,0-2.5-7.11,2.44-6.36ZM3407.11,2010.2c-3.78-1.79-1.19-7.49,2.89-5.51,4.89,2.38,1.08,7.39-2.89,5.51ZM3412.88,2003.19c-4.14-1.77-2.12-7.71,2.27-5.62,3.74,1.78,2.93,7.84-2.27,5.62ZM3404.49,2002.87c-2.09.51-3.94-.46-4.15-2.33-.37-3.27,4.7-6.05,6.9-1.56-.06,2.19-.58,3.36-2.76,3.89ZM3419.62,1997.35c-4.42-.69-5.09-7.39-.72-6.42,4.36.97,5.85,7.23.72,6.42ZM3402.04,1990.95c1.55,3.19-2.4,6.49-6.35,4.41-1.17-6.41,5.39-6.38,6.35-4.41ZM3407.98,1995.31c-4.41-1.48-2.08-7.46,2.17-5.99,4.52,1.55,2.32,7.49-2.17,5.99ZM3414.08,1988.41c-4.55-.96-4-7.11.53-6.04,4.68,1.11,4.21,7.04-.53,6.04ZM3402.19,1987.51c-3.75-1.73-.17-7.74,3.78-5.52,4.03,2.26.17,7.34-3.78,5.52ZM3420.38,1982.39c-2.93,0-4.68-2.79-3.77-5.72,5.84-3.12,8.56,5.72,4.59,5.72h-.82ZM3401.77,1979.55c-.91.98-3.36,2-5.07,1.06-2.93-1.63.88-7.68,4.54-5.54,2.25,1.32,1.59,3.33.53,4.48ZM3407.99,1980.05c-3.98-1.68-1.16-7.82,2.95-5.5,4.49,2.54,1.04,7.19-2.95,5.5ZM3417.68,1969.15c1.6,2.61-.4,5.41-3.98,3.96-3.92-1.59-2.72-7.72,2.02-5.51.92.43,1.22.36,1.95,1.55ZM3403.15,1972.5c-3.91-.89-2.16-7.18,2.56-5.9,4.26,1.15,2.28,7-2.56,5.9ZM3419.67,1967.2c-4.1-1.32-3.98-7.7.12-6.19,5.02,1.84,4.79,7.79-.12,6.19ZM3408.32,1964.87c-3.67-1.59-1.49-7.58,2.75-5.43,4.57,2.31,1.41,7.23-2.75,5.43ZM3397.62,1965.66c-3.7-1.34-.32-7.77,3.65-5.87,4.58,2.19-.3,7.09-3.65,5.87ZM3408.1,1953.18c.87,2.04-.54,3.46-1.9,4.04-2.3.97-3.49-.23-4.69-1.08-.61-6.02,5.37-5.81,6.6-2.96ZM3411.6,1954.23c.74-3.7,7.04-2.28,7.04,1.87,0,4.34-7.82,2.01-7.04-1.87ZM3408.87,1949.92c-4.52-1.42-1.52-8,2.97-5.53,3.65,2.01,1.54,6.95-2.97,5.53ZM3398.94,1950.61c-4.15,0-2.83-6.45,1.65-6.41,4.38.04,3.37,6.41-1.23,6.41h-.41ZM3412.37,1937.77c3.57-1.49,7.15,0,6.29,4.67-3.67,2.34-7.44-.02-6.29-4.67ZM3405.8,1936.12c3.94.54,4.2,6.29-1.09,6.29-4.52,0-3.32-6.89,1.09-6.29ZM3409.48,1934.86c-4.29-1.25-2.58-7.49,2.26-5.7,3.77,1.4,2.86,7.18-2.26,5.7ZM3399,1935.42c-4.14-.46-1.84-7.16,2.39-6.22,4.75,1.06,1.79,6.69-2.39,6.22ZM3424.11,1937.97c-2.27-1.46-4.08.13-5.95-2.33-1.53-1.99-.38-3.46-.3-5.9.08-2.41.06-5.41-.02-7.83-.06-1.93.14-2.4-1.19-2.84-3.06-1.01-17.26.19-20.09.86-4.4,1.04-4.01,1.47-4.1,6.07-.13,6.92-.33,13.33-.38,20.21-.06,6.79-.62,13.29-.61,20.2.03,10.23-3.19,99.77-2.31,102.52,2.28-.37,4.26-1.31,7.5-1.71,6.72-.83,17.72-1.11,23.8.97,3.39,1.16,3.25,3.39,3.4-18.49.09-12.63.82-24.19.79-36.71-.02-12.15.85-24.98,1.01-37.08l.3-14.5c-.27-2.56-3.95-1.81-6.44-7.31-2.32-5.11-2.62-3.92-2.47-7.23,3.3-2.76,1.7-2.34,3.39-4.72,1.19-1.68,3.13-2.35,3.68-4.18"/>
          <path class="cls-1" d="M3340.96,2187.26c-1.09-.69-3.57-2.68-3.77-4.4,1.99-.65,6.19-1.22,7.39-.08.68.66,3.35,3.96,3.5,4.92-2.45.42-5.21.75-7.12-.44ZM3350.74,2181.64c1.51-1.24,25.05-3.44,28.87-3.7,1.07,2.39,4.43,5.51,4.96,7-1.45.75-23.3,2.15-26.44,2.15-2.33,0-6.53-3.52-7.38-5.45ZM3330.67,2166.21l-.16-2.64,7.22-1.27c.93,2.67.89,3.15-1.76,3.45-1.64.18-3.63.69-5.3.46ZM3373.52,2156.76l.34,3.91c-3.27.95-21.91,3.01-28.04,3.87-1.57.22-2.23.38-2.1-1.86.1-1.76.56-1.55,2.69-1.83,5.9-.76,24.27-4.29,27.1-4.09ZM3393.89,2158.01c-2.36.78-3.96.79-6.43,1.07-1.75.2-4.09.89-5.78.67l-1.04-.28c-1.26-5.07.79-4.17,4.58-4.78,1.5-.24,7.02-1.47,7.95-1.13l.72,4.45ZM3338.16,2143.92c.33-.84,3.13-3.23,5.42-3.41-.13,2.94-2.83,4.46-5.39,4.22l-.03-.81ZM3349.03,2140.81c-5.35,7.36-7.67,15.81-6.25,25.3,1.14,7.67,4.2,14.99,10.3,19.76,1.02.8,1.29,1.18,2.02,1.86-3.9,1.23-4.45-.05-6.45-1.98-1.95-1.87-2.65-2.94-4.13-5.36-5.55-9.07-6.42-21.24-3.22-31.24,2.02-6.32,3.6-9.49,8.68-10.04-.56,1.03-.22.71-.95,1.7ZM3363.13,2135.5c3.02-.75,13.98-3.92,16.31-3.66-3.29,5.17,1.07,4.03-13.02,6.99-5.05,1.06-11.53,2.85-16.41,3.47.3-4.87,9.43-5.88,13.12-6.8ZM3392.46,2128.14c2.59-.63,8.34-2.31,10.44-2.42-.16,1.28-1.59,2.29-2.49,3.79-1.47,2.47-.44,2.14-3.84,2.8-2.6.51-8.34,2.12-10.62,2.12,1.11-2.63,3.29-5.51,6.51-6.29ZM3449.4,2110.41c-7.27-.25-6.23-.39-6.18,4l.4,16.92c0,13.37,1.98,10.59-8.38,12.46l-25.37,4.22c-1.05-2.38.37-26.59.37-31.29-1.09.12-1.62.32-2.43.62.06.08.7,1.05.71,1.07.53,1.21.44.61.16,2.93-3.76,1.46-18.71,4.94-23.8,6.26-8.03,2.08-15.51,3.93-23.62,6.06-4.15,1.09-8.05,2.03-12.16,3.08-4.67,1.2-7.2,1.51-10.69,4.16-9.71,7.39-11.82,25.07-7.42,36.1,3.41,8.55,8.42,14.54,19.27,13.84,4.93-.32,39.77-2.8,41.12-3.84-1.35-3.16-1.44,1.79-6.6-4.01-10.25-11.5-12.43-28.99-7.46-43.58.93-2.76,2.16-5.22,3.54-7.58,1.04-1.78,1.05-1.86,3.32-2.46,1.38-.37,3.07-.95,4.36-.9-2.27,3.13-4.75,5.75-6.5,10.32-3.47,9.11-4.12,18.93-1.29,28.44.6,2.01,3.63,10.12,5.66,10.51,2.24-4.41-1.99-3.69,7.67-5.09,1.88-.27,9.21-.65,10.74-1.73-.49-1.48-1.38-2.72-2.02-4.29-4.4-10.75-4.54-23.6,1.97-33.58,2.09-3.2,2.32-4.01,3.78-3.6-.7,9.74-2.88,29.37-2.05,38.46.17,1.78.12,2.52,1.51,2.91,1.83-2.88-.92-15.15.85-18.86,1.38-.74,33.74-5.73,34.68-5.48.71.54,3.21,16.6,3.64,19.93.26,1.94.27,1.98-.25,2.4-2.24,1.32-14.58.42-17.51,1.69-.74,1.26-1.46,7.02-1.37,8.78,1.47.57,6.31,3.28,7.44,2.78-1.57-1.42-4.79-2.71-6.74-3.7l1.29-6.28c4.47-.71,17.4.63,20.61-.53.36-2.59-.89-11.94-1.22-14.82-.56-4.97-1.41-9.9-.97-15,.32-3.73,1.62-29.72.9-31.3"/>
          <path class="cls-1" d="M3597.69,1937.94c.49-1.29-3.73-16.06-4.57-19.4-.28-1.13-.52-2.25-.8-3.32-.55-2.09.07-1.6-1.66-2.01l-29.7-2.39c-8.62-.5-54.29-4.59-60.36-4.37.27,4.5,6.07,31.38,7.64,34.27,7.51.69,15.69,1.36,23.03,1.7,16.11.74,19.22,3,34.03.33,4.02-.72,30.91-3.83,32.4-4.8"/>
          <path class="cls-1" d="M3680.99,1959.8c.31-3.78-1.4-4.27.4-11.48,1.25-5,3.94-6.97,3.79-8.43-12.95-1.2-53.91,2.3-68.98,3.43-14.17,1.06-49.25,5.96-63.32,8.78l-30.29,6.03c-2.9.57-6.96,1.36-9.27,2.32,3.21.51,9.4-.9,12.98-1.22,13.41-1.19,24.82-2.43,38.78-3.18,17.91-.96,36.5-1.25,54.58-.82-.4.4.17.19-1.01.82l-16.16,2.82c-5.85,1.11-11.43,2.28-17.2,3.43-4.98,1-30.28,6.67-32.61,8.21,1.38.37,26.45-3.69,30.29-4.35,9.66-1.65,21.58-2.83,31.53-3.59,8.48-.65,58.53-4.23,66.49-2.79"/>
          <path class="cls-1" d="M3559.01,2089.57c-1.66-2.54-3.13-5.76-4.72-8.46-1.61-2.73-3.15-5.29-4.88-7.91-4.05-6.11-12.05-16.47-17.65-21.11-2.64-2.19-3.95-3.54-7.17-5.61-12.69-8.15-27.17-7.55-39.22,1.85-29.58,23.07-31.44,95.42-29.31,131.55.12,1.95-.51,5.37,1.69,4.97,1.8-.33,1.25-1,.94-4.86-.49-6.3-1.43-14.97-.68-21.41.38.75,1.34,12.2,1.69,14.65.63,4.39,1.95,9.45,3.19,13.28,1.67,5.23,7.09,18.56,10.66,22.1.48-.97-2.39-6.92-3.01-8.69-5.87-16.7-6.53-24.18-6.53-41.37,0-14.05,6.22-37.4,14.12-49.02,10.33-15.21,19.87-21.17,38.34-24.73-.76-3.18-6.24-7.13-9.51-8.76-2.63-1.31-4.16-.01-6.46,1.04-10.37,4.76-17.63,12.03-24.27,20.66-8.08,10.51-13.48,24.8-16.14,38.32-.59,2.98-1.56,14.46-2.09,15.51,0-22.02,1.96-48.86,8.44-67.72,3.78-11.01,6.65-15.84,13.54-24.39,2.13-2.65,7.51-6.53,10.72-8.25,19.78-10.54,34.11-1.16,47.12,14.6,5.78,6.99,11.94,18.76,15.67,27.62.66,1.57.71,3,2.25,3.72.13.06,21.44-3.04,24-3.49,4.48-.77,21.68-2.58,24.18-4.29l-3.82-.02c-13.09.3-11.34.66-23.91.19-4.25-.16-11.64.67-17.19.04"/>
          <path class="cls-1" d="M3296.09,2176.44c-2.09-.59-2.97-2.12-3.15-4.68-.15-2.13-.48-5.81.47-7.4.88,1.17,1.71,3.21,2.76,4.62.89,1.2,2.48,2.67,3.85,3.57,2.3,1.53,5.28,2.52,8.09,3.01l2.76.63c.05-.09.21.09.3.15-2.3.43-12.79.76-15.08.1ZM3340.27,2135.04c-1.16-1.84-2.53-1.28-5.23-1.35-7.4-.18-42.24-2.16-44.12-1.13-2.3,1.24-1.13,8.89-.94,11.53.31,4.37.54,8.46.53,12.8-.01,4.4,0,8.8,0,13.2,0,4.56-.76,8.59,4.54,8.59h30.92c1.94,0,1.5-.8,1.01-2.51-4.32-15.12.72-23.65.43-26.24l-8.46-.81c-1.26,1.87-.86,5.85-1.1,8.22l-1.29,7.48c-.02-.06-.1.19-.18.27-1.42-2.08-.55-13.38-.42-16.05-21.38-1.13-16.24-2.62-17.56,7.47-.37,2.82-.47,6.12-1.58,8.58-1.01-3.51-.35-10.19-.31-13.94.08-8.08-.86-10.56-.79-15.89,1.63,1.94,2.64,7.17,2.98,9.49l16.51.28c.35-.51.21-.09.38-.97.11-.55.08-.61.07-1.16l-.38-6.32c1.24.52.71-.16,1.8,4.08.38,1.49.73,3.08,1.14,4.69l6.91.36c6.35.16,4.45-.36,6.47-2.96,1.73-2.23,1.27-1.91,1.57-5.08,1.75.68-.44.46,1.45,1.44.47-.19,5.32-3.6,5.64-4.06"/>
          <path class="cls-1" d="M3848.26,2172.06c-3.08-1.46-62.66-.96-72.36-1.67l-36.44-.7c-12.25.03-24.09-.59-36.28-.59-35.18,0-73.25-1.73-108.83-1.79-16.96-.03-21.2-8.26-26.39-10.4-.52,4.32,3.2,11.46,5.21,13.75,2.82,3.22,7.57,5.28,13.74,5.03,12.14-.5,24.96-.55,37.13-.59,25.08-.08,49.96-1,75.03-1,24.79,0,49.79-1.03,74.62-1,12.64.01,25.03-.57,37.52-.61,12.51-.03,24.58-.08,37.07-.42"/>
          <path class="cls-1" d="M3423.84,1917.35c0-4.02-.77-14.82.59-17.33.02,6.6,1.37,13.58,1.79,20.2.66,10.39,7.24,6.71,11.46,10.31-16.29.85-13.84-.66-13.84-13.19ZM3440.2,1872.25c-2.41-.85-7.46-.39-10.34-.4-4.01-.02-6.54-.22-8.03,2.85-1.17,2.42-.59,36.01-.59,41.41,0,19.78-1.56,18.27,13.56,18.31,3.87,0,6.89.03,8.24-2.65,1.15-2.27.58-36.33.58-41.63,0-7.73,1.43-16.19-3.43-17.89"/>
          <path class="cls-1" d="M3384.66,2066.6c0-17.27,1.49-39.69,1.6-57.31.06-9.44.11-19.47.67-28.86.55-9.42.11-19.12.68-28.55.59-9.76.29-19.35.64-29.19.09-2.51,1.12-3.81,2.47-4.91,2.11-1.72,3.84-.6,4.15-3.3.36-3.18.21-10.61.19-14.04-.03-5.7,1.32-23.52-.65-26.79-3.56-5.88-19.07,1.59-20.64,4.53,4.15-.48,13.37-6.82,13.13,3.26l-.64,27.64c0,9.7,1.16,7.68-5.77,13.31-3.57,2.9-6.88,5.68-10.39,8.56-11.22,9.21-32.28,26.12-41.59,34.56,1.66-.13,12.61-8.49,14.61-10.01,6.36-4.84,41.09-30.14,42.75-30.46l-3.82,161.33c-.09,8.31-.33,7.01,3.67,6.95,1.61-.03,3.55.17,4.96-.19l.57-3.03c.63-20.76.52-14.76-4.06-16.33-3.07-1.05-2.54-4.54-2.54-7.19"/>
          <path class="cls-1" d="M3584.86,2080.54c-10.04,0-20.1-10.89-16.94-14.78,1.9-2.35,14.79-3.83,18.31-4.39,2.74-.44,7.84-2.07,9.3.32,1.36,2.24,6.15,13.54,6.2,16.45-1.26.83-13.5,2.4-16.87,2.4ZM3599.74,2060.74c-1.74-3.24-.35-2.12,7.91-2.7,18-1.26,62.75-.98,69.87,17.35,1.83,4.7-4.18,3.75-7.74,3.75-9.75,0-59.47.5-63.08-.22-.96-1.73-2.7-10.24-6.97-18.17ZM3633.87,2054.15c-11.16-1.31-25.38-.17-36.58.62-6.06.43-28.16,3.36-31.78,6.07-8.91,6.68,1.3,18.29,8.44,22.02,11,5.76,20.98.92,32.8.29,14.15-.76,40.47-.03,56.85-.03,5.52,0,13.7,1.21,16.73-2.27,3.66-4.22-.56-10.67-3.01-13.13-10.95-11.05-29.22-11.92-43.45-13.58"/>
          <path class="cls-1" d="M3649.19,1903.23c-.79-1.18-46.27-19.33-47.61-19.9-15.11-6.37-11.23-4.97-27.44-6.4-10.54-.93-20.85-1.24-31.52-2.22-15.67-1.45-32.78-1.95-47.26-3.48-15.33-1.62-15.3,1.02-19.43,13.43-1.91,5.72-1.71,3.63-8.7,8.2-1.66,1.08-3.55,2.14-5.44,3.23l-10.53,6.38c-2.02,1.26-4.11,1.49-3.94,4,1.51-.13,15.51-9.2,18.8-11.01,5.11-2.82,15.33-11.32,18.71-2.17.92,2.47,1.22,9.88,1.63,13.21l3.88,33.18c.17,1.9-.3,4.96,1.57,5.51.67-2.56-4-38.44-4.65-46.1-.38-4.42-.15-6.83-3.18-9.6l-2.41-1.84c.83-1.14,2.65-1.66,4.32-2.4,14.19-6.35,16.95-8.9,35.54-6.44,7.42.99,15.85,1.54,23.5,2.12l46.43,4.24c10.18.96,10.72,1.73,20.07,5.08,3.17,1.14,35.15,12.88,37.67,12.97"/>
          <path class="cls-1" d="M3417,1914.8c.62-2.82,1.04-56.53,1.04-60.53,0-10.75,1.22-17.78-2.28-27.55-1.36-3.79-3.25-6.85-5.03-10.21-2.77-5.24-3.15-7.74-7.57-7.41-3.83.3-7.88,4.22-5.41,8.43,1.92,3.26,3.49,6.59,5.31,9.93,4.39,8.08,3.17,16.95,3.19,27.22.02,7.22-1.82,57.49-.3,59.82,1.36-.48,1.04-.23,1.15-2.06l1.54-42.11c.18-7.71.77-15.47.81-23.1.04-8.99,1.06-9.39-1.79-18.26-.27-.87-.52-1.09-.07-1.79,3.31,6.86,3.25,10.94,3.25,19.66-.01,7.35.43,15.07.41,22.26-.02,5.01-.29,43.64.63,44.73.96,1.21,3.4,1.01,5.12.96"/>
          <path class="cls-40" d="M3640.92,2073.99c2.93.14,26.12,1.84,27.11,2.32-5.38,1.18-20.87.43-27.51.43l-24.31.02c-.75-.03-.7.02-1.38-.16-1.88-.53-.39-.02-1.11-.56,9.04-1.13,18.64-2.46,27.21-2.04ZM3661.08,2067.89c-3.54-1.09-4.3-1.91-6.87.02-4.93,3.72-11.34,3.57-14.87-.95-2.96-3.79.16-3.25-8.26-3.83-3.69-.26-19.48-1.92-21.71-.4l20.16,8.56-20.76-4.58.22,9.42c-1.17-.61-.56.61-1.8-3.81l-2.93-7.79c-.81-1.87-1.64-2.62-.82-3.82,19.14-1.17,30.09-1.54,50.02,2.4,7.04,1.39,18.64,6.05,20.45,11.03-1.95-.27-5.26-3.93-12.82-6.25ZM3606.71,2078.92c3.6.72,53.32.22,63.08.22,3.56,0,9.56.95,7.74-3.75-7.12-18.33-51.87-18.61-69.87-17.35-8.26.58-9.65-.54-7.91,2.7,4.28,7.94,6.01,16.44,6.97,18.17"/>
          <path class="cls-40" d="M3352.51,1978.63l-.57-10.9c-1.93.41-7.14,4.57-9.58,6.01-.55.33-1.01.62-1.55.95-1.13.68-.78.64-1.87.68l3.25-3.03c1.71-1.35,11.69-10.77,11.69-3.85,0,2.72-.17,8.05-1.36,10.15ZM3355.39,1960.21c-2.9-.22-8.84,5.19-12.36,7.6-15.25,10.39-11.76,8.13-12.5,27.06-.13,3.25.06,6.43-.17,9.69-.14,2.08-.97,8.46.73,9.2,1.52.67,5.12-2.3,6.51-3.13,6.18-3.67,14.81-7.8,16.78-12.91,1.53-3.96,1.24-21.3,1.5-28.01.14-3.52.64-6.88-.48-9.49"/>
          <path class="cls-1" d="M3380.93,2229.18c.2-1.22-.49-1.35-1.32-2.23-1.66-1.79-3.5-5.47-4.51-7.87-2.08-4.95-2.85-11.48-4-12.1-.68-.37-28.11-1.1-31.27-1.1-4.8,19.96-9.23,21.33-9.82,24.08l50.92-.77"/>
          <path class="cls-1" d="M3650.21,1933.23c.19-.81.08-5.27-2.49-6.19-2.38-.85-4.93-1.14-7.3-1.78-6.16-1.68-41.79-10.47-43.43-10.21-.23,1.84,2.01,9.38,2.55,11.52.58,2.31,1.8,9.95,3.46,11.01l47.21-4.34"/>
          <path class="cls-40" d="M3336.8,2049.17c-1.49-1.02-3.11.8-5.21,1.09.27-.15,1.6-2,3.33-2.76,5.28-2.28,3.92,5.99,3.72,8.71-.11,1.44-.31,4.77-1.13,5.8-1.24-3.43.24-10.25-.71-12.84ZM3340.69,2045.16c0-4.3-2.83-1.8-4.99-.56-11.38,6.54-8.03,3.77-9.08,18.99-.59,8.61-.13,18.19-.67,27.76-.21,3.72-.5,4.86.69,7.39,2.35.24,4.34-1.02,6.46-1.91,2.52-1.06,3.1-1.37,4.59-3.23,2.55-3.18,2.18-8.66,2.2-13.36.03-11.59.79-23.1.79-35.06"/>
          <path class="cls-40" d="M3498.4,2169.34c-1.18,1.54,2.82,5.97,3.63,6.9,15.71,18.22,40.24,5.13,43.45-17.51,4.1-28.92-18.24-46.48-35.58-37.63-3.07,1.56-4.77,3.81-6.9,4.69.51-2.75,1.46-3.66-.59-5.81-2.38.14-3.28,1.55-3.79,3.86-.97,4.41,2.23,4.51,2.23,4.51.05-.09.21.05.29.1-.68,1.1-1.48,2.09-2.23,3.5-.53,1-1.58,2.49-1.11,3.59.41-2.43,3.06-4.94,4.44-6.44,14.79-16.17,37.26-2.59,37.33,22.45.05,21.13-16.14,35.79-30.88,27.95-4.86-2.58-7.8-5.8-10.28-10.14"/>
          <path class="cls-1" d="M3286.11,2169.68c0-8.12-1.93-21.94-5.4-27.72-3.12-5.2-7.04-.7-8.84,2.89-1.41,2.8-3.74,8.89-3.74,12.59,1.45-1.76,1.91-6.66,4.64-9.22,3.49-3.27,5.23,1.55,6.24,4.52,4.53,13.29,2.62,40.07-.33,53.75-.59,2.75-4.43,18.61-9.3,13.2-1.08-1.21-2.27-3.47-2.56-5.33-.51,4.18,3.07,12.11,6.38,12.11,5.24,0,9.05-14.96,9.92-20.03,2.95-16.91,2.99-20.5,2.99-36.75"/>
          <path class="cls-1" d="M3725.56,2117.42l-2.77-.81c-13.12-1.02-59.09-3.15-66.47-.4-5.71,2.12-9.2,7.2-9.2,14.7,0,20.71,10.86,18.53,29.12,19.64,7.45.45,40.61.13,45.87-1.9l-2.4-.37c-.95-.01-1.96.02-2.92.02-13.1.02-36.89,0-48.48-1.46-7.82-.99-18.52,1.4-17.56-15.94.36-6.53,2.75-11.55,10.37-11.94,12.41-.64,30.53-1.45,42.89-1.45,4.28,0,18.89.52,21.55-.09"/>
          <path class="cls-1" d="M3750,2073.09c1.17-5.36-.97-24.97-1.4-31.23-.59-8.7-2.03-20.64-3.6-29.02-3.22-17.24-5.06-30.33-9.69-47.61l-1.38-4.85c-.06-.11-.33-.49-.38-.57-.05-.08-.19-.12-.23-.29-.04-.18-.15-.2-.23-.29-.11,13.42,13.83,107.98,16.91,113.87"/>
          <path class="cls-40" d="M3588.19,2068.22c-2.28-.62-8.26-.86-9.79-2.03l14.99-2.56c1.16,2.37,2.9,5.31,3.56,8.01-2.83-.81-5.23-2.47-8.75-3.42ZM3601.74,2078.14c-.05-2.91-4.84-14.21-6.2-16.45-1.46-2.39-6.56-.76-9.3-.32-3.52.56-16.41,2.04-18.31,4.39-3.15,3.89,6.9,14.78,16.94,14.78,3.37,0,15.61-1.56,16.87-2.4"/>
          <path class="cls-1" d="M3278.92,2168.44c0-4-1.19-10.49-4.07-12.1-2.6.8-3.24,3.26-4.18,5.88-3.48,9.74-3.74,22.51-3.74,33.02,0,14.24,5.15,24.25,9.48,6.91,1.12-4.5.45-3.48-.59-5.42-2.1-3.88-.96-17.36.05-21.52,1.71-7.11,3.05-4.33,3.05-6.78"/>
          <path class="cls-1" d="M3784,2074.87c2.49-4.32-2.65-51.65-4.01-59.11-1.4-7.65-8.02-48.35-11.08-52.85-1.5,3.77,12.8,101.93,15.09,111.96"/>
          <path class="cls-1" d="M3554.77,2199.23c-2.69.98-9.14,7.81-21.36,9.69-21.41,3.28-41.33-8.02-48.6-26.58-1.99-5.08-2.94-10.94-3.24-11.63-1.66,2.55.42,11.47,1.33,14.38,3.59,11.49,11.89,21.67,23.69,26.6,8.67,3.62,18.87,4.1,28.26,1.18,6.2-1.92,17.98-8.81,19.92-13.62"/>
          <path class="cls-1" d="M3260.53,2175.86c0-7.13-1.57-20.28-4.32-25.46-4.86-9.18-9.63,4.91-10.89,9.14-.13.43-.37,1.17-.36,1.59.03,1.15,0,.73.41,1.38.62-3.35,2.41-7.52,5.17-8.4,6.97,2.13,5.9,26.53,5.81,34.54-.06,5.54-1.2,13.13-2.29,18.35-.96,4.53-2.54,12.97-6.81,13.65-1.61-.23-2.06-2.67-3.29-3.56.1,6.22,7.09,17.58,12.66-4.19,3.45-13.51,3.92-23.35,3.92-37.02"/>
          <path class="cls-1" d="M3673.9,2074.14c-1.82-4.98-13.42-9.63-20.45-11.03-19.92-3.94-30.87-3.56-50.02-2.4-.82,1.2,0,1.95.82,3.82l2.93,7.79c1.24,4.42.63,3.2,1.8,3.81l-.22-9.42,20.76,4.58-20.16-8.56c2.23-1.53,18.02.14,21.71.4,8.42.58,5.3.04,8.26,3.83,3.53,4.52,9.94,4.66,14.87.95,2.57-1.94,3.34-1.11,6.87-.02,7.56,2.32,10.87,5.98,12.82,6.25"/>
          <path class="cls-1" d="M3254.73,2173.8c-.2-3.49-2.05-16.3-6.29-8.67-4.99,8.97-6.9,46.91-.39,46.94,2.67-1.01,4.95-7.88,4.89-11.47-1.1-.99-1.52-.77-2.03-2.42-1.25-4.11-.44-14.71.64-19.27.16-.67.68-2.46,1.03-3.03,1.05-1.7,1.31-.3,2.15-2.08"/>
          <path class="cls-1" d="M3550.91,2064.49c.07-3.23-2.4-8.61-3.59-11.08-8.36-17.37-29.38-27.84-48.28-19.45-5,2.22-14.72,8.79-16.04,13.39,1.84-1.05,2.38-2.12,3.76-3.4,19.52-18.1,49.01-5.05,61.6,16.67,1.03,1.78,1.15,2.38,2.54,3.87"/>
          <path class="cls-1" d="M3650.82,1921.78c.6-1.2-1.2-7.26-1.97-8.65-1.56-2.79-3.63-3.47-6.95-4.56-8.77-2.89-46.51-15.81-52.8-16.17-14.69-.87-76.46-6.77-85.47-6.28,2.19.91,17.59,2.18,20.45,2.59,11.73,1.69,29.38,2.88,41.73,4.02,22.47,2.07,19.55.49,39.37,6.37,5.82,1.73,11.69,3.58,17.44,5.24,31.54,9.13,22.57,5.66,28.21,17.45"/>
          <path class="cls-1" d="M3315.67,2096.26l-.33.59c-.86,2.4.34-2.16-.21.68-.21,1.07-.13,8.33.55,9.86,3.21,7.25,12.1,2.8,16.64,1.41,7.07-2.18,40.78-12.46,43.79-14.48-2.32-.46-40.8,8.53-49.02,10.11-8.91,1.71-10.42-6.9-11.42-8.18"/>
          <path class="cls-1" d="M3434.39,1953.21l3.51-.47c-4.66,5.42-13.23,1.59-13.82-4.07,2.36,1.59,4.93,4.54,9.48,4.54h.82ZM3442.03,1948.68c0-11.4-19.99-11.7-19.99,0,0,5.59,4.9,9.33,9.05,9.33,6.15,0,10.93-3.23,10.93-9.33"/>
          <path class="cls-1" d="M3816.03,2074.81c2.12-12.62-6.76-66.29-10.15-80.78-1.05-4.47-4.47-21.06-6.14-23.81-.26,3.1,7.57,47.74,8.3,52.14.92,5.54,7.46,51.68,7.99,52.45"/>
          <path class="cls-1" d="M3412.83,2070.85c-1.43-.82-1.93-1.28-3.84-.79-1.26,8.82-.22,18.08-3.95,25.33-1.8,3.51-4.02,5.15-5.23,9.6-.98,3.64-1.29,9.14.64,12.05,1.11.29,4.34-1.04,5.41-1.68-.4-5.08-.93-6.91.91-11.68,1.67-4.31,3.94-6.36,4.5-8.69,1.33-5.59,2.18-18.03,1.57-24.14"/>
          <path class="cls-1" d="M3402.83,2070.16c-1.44-.64-2.33-.06-3.77.69-1.32,6.39,1.1,15.88-2.15,21.35-2.55,4.28-5.66,11.11-5.66,17.28,0,2.93.16,8.19,1.91,10.29,1.45-.09,4.44-1.14,5.63-2.05-.16-2.17-1.51-4.62-1.71-7.95-.7-11.52,6.45-14.23,6.16-23.38l-.42-16.23"/>
          <path class="cls-1" d="M3425.19,2178.61c.79-1.87,1.35-4.9,1.17-7.1-1.51-.4-34.82,3.56-36.45,4.27l-.77,1.42c-.36,1.19-.46,3.13.03,4.27,2.32.38,32.6-2.17,36.02-2.86"/>
          <path class="cls-1" d="M3355.87,1969.69c-.26,6.71.03,24.05-1.5,28.01-1.97,5.11-10.6,9.24-16.78,12.91-1.39.82-4.99,3.79-6.51,3.13-1.7-.74-.87-7.11-.73-9.2.23-3.26.04-6.44.17-9.69.74-18.93-2.75-16.67,12.5-27.06,3.53-2.41,9.46-7.82,12.36-7.6,1.12,2.61.62,5.97.48,9.49ZM3355.39,1958.39c-2.46-.87-5.61,2.28-7.2,3.45-2.19,1.61-3.99,2.77-6.19,4.52-3.92,3.12-10.35,6.72-11.93,9.92-1.62,3.29-1.38,15.86-1.37,20.64,0,3.54-.07,6.83-.27,10.31-.21,3.44-.87,7.54,2.34,8.41,1.72.46,2.97-.5,4.1-1.17,23.38-14.16,22.54-10.65,22.62-37.35.02-6.43,2.15-17.23-2.08-18.73"/>
          <path class="cls-1" d="M3340.69,2045.16c0,11.96-.76,23.48-.79,35.06-.02,4.7.36,10.18-2.2,13.36-1.5,1.87-2.07,2.17-4.59,3.23-2.11.89-4.11,2.15-6.46,1.91-1.19-2.52-.9-3.67-.69-7.39.53-9.57.07-19.15.67-27.76,1.05-15.21-2.29-12.44,9.08-18.99,2.15-1.24,4.99-3.73,4.99.56ZM3339.57,2040.91c-1.25-.28-11.27,5.84-12.29,6.82-3.14,3.03-2.54,11.8-2.6,17.23l-.61,28.86c-.12,2.99-.29,6.23,2.86,6.84,1.76.34,5.6-1.65,7.26-2.32,2.62-1.05,4.19-2.4,5.52-4.37,2.41-3.57,2.04-12.51,2.16-17.48.16-6.53.41-12.91.4-19.37,0-7.94,1.82-15.21-2.71-16.21"/>
          <path class="cls-1" d="M3495.31,1958.91c.68-10.46-12.89-15.5-19.51-18.67-8.44-4.05-19.15-10.88-28.36-10.04l-1.19,4.18c11.18.34,15.82,3.68,26.13,8.89,5.91,3,13.43,5.65,16.54,9.84,1.38,1.86,1.61,4.38,2.78,6.05l3.61-.26"/>
          <path class="cls-40" d="M3668.14,2133.39c-2-1.41-4.61-2.09-6.12-3.23,2.63-.49,6.75-.39,9.47-.08,1.5.18,1.51-.09,1.79,1.38.28,1.44.21,4.8-.19,6.06-1.54-.26-1.22-1.5-4.94-4.13ZM3677.1,2130.92c0-6.02-5.48-4.41-15.97-4.41-2.81,0-4.22,1.05-4.22,3.99,0,5.34-1.02,10.4,3.8,10.4,17.86,0,16.39,1.61,16.39-9.98"/>
          <path class="cls-1" d="M3500.4,1965.59c0-3.17-2.46-3.1-5.43-3.02-3.39.09-3.97.87-3.97,4.25v15.67c0,2.89.64,4.1,3.58,4.1,2.76,0,5.82.47,5.82-2.86v-18.14"/>
          <path class="cls-40" d="M3358.12,2187.08c3.15,0,24.99-1.41,26.44-2.15-.52-1.49-3.89-4.61-4.96-7-3.82.26-27.36,2.46-28.87,3.7.85,1.93,5.05,5.45,7.38,5.45"/>
          <path class="cls-1" d="M3325.15,1927.94c2.86-4.21,3.39-6.05,7.56-11.27,8.89-11.15,25.7-24.13,38.25-31.01,2.08-1.14,6.74-3.38,7.97-4.8-3.8.36-14.53,6.43-17.72,8.22-5.45,3.06-10.29,6.6-15,10.15-5.61,4.22-17.01,12.47-19.22,19.12-.61,1.84-2.72,8.37-1.82,9.59"/>
          <path class="cls-1" d="M3660.72,2140.9c-4.82,0-3.8-5.06-3.8-10.4,0-2.94,1.41-3.99,4.22-3.99,10.49,0,15.97-1.61,15.97,4.41,0,11.6,1.47,9.98-16.39,9.98ZM3679.5,2129.69c0-3.08-3.27-5.77-6.41-5.77-9.76,0-18.77-1.92-18.77,7.42,0,10.88.11,12.17,12.59,12.17,13.51,0,12.6-1.72,12.6-13.82"/>
          <path class="cls-1" d="M3417.26,2093.62c2.33.71,31.1-5.29,37.43-6.29,2.38-.38,4.36-.12,5.08-2.34.38-1.17,1.2-4.26,1.25-5.46-2.15-.1-39.07,12.37-43.76,14.1"/>
          <path class="cls-1" d="M3312.3,2184.93c0-1.84-3.74-2.49-4.05.79-.2,2.13-.2,4.72-.31,6.68-.27,4.46-1,8.6-1.63,12.82-.57,3.82-1.63,8.18-2.72,11.76-2.29,7.51-4.59,8.68-1.13,8.68,3.09,0,3.35-2.73,4.89-8.21,2.58-9.17,4.94-23.3,4.94-32.52"/>
          <path class="cls-40" d="M3349.98,2139.11c-5.08.55-6.65,3.72-8.68,10.04-3.2,10-2.33,22.16,3.22,31.24,1.48,2.42,2.18,3.49,4.13,5.36,2,1.93,2.55,3.21,6.45,1.98-.73-.68-1-1.06-2.02-1.86-6.1-4.78-9.16-12.09-10.3-19.76-1.42-9.48.9-17.94,6.25-25.3.73-1,.38-.68.95-1.7"/>
          <path class="cls-1" d="M3852.45,2071.55c-.79-2.05-2.61-3.59-3.88-5.21-1-1.29-2.93-3.62-4.4-4.08-.61,1.05,2.73,31.55,3.15,32.05.41.49,6.45,1.3,7.63,1.44,2.27.27,5.96,1.23,7.98.75.23-4.72-10.73-.47-13.26-9.41-.84-2.97-1.63-6.44-2.04-9.48-.26-1.92-.45-3.61.73-4.76.64-.62,1.08-.67,2.06-.86.48-.09.65-.08,1.08-.16.85-.17.42.02.96-.28"/>
          <path class="cls-1" d="M3433.04,1963.52c0-1.7.19-1.56-1.09-1.92q-.57.7-.69,2.85c-.06,1.17-.03,2.43-.02,3.61l-.4,80.81c0,7.71-2.05,21.71,5.75,23.47-.85-1.03-.85-.64-1.81-1.6-.37-.38-1.15-1.18-1.57-1.71-2.57-3.33-1.23-12.15-1.17-17.27.1-8.72.2-16.12.2-24.74,0-21.1.8-42.08.8-63.5"/>
          <path class="cls-1" d="M3846.4,2149.1c.58.38-.04.21,1.3.59l4.27.24c25.04,1.24,26.63,2.61,26.62-13.24,0-3.02-.28-8.6-1.49-10.68-1.57-2.68-4.82-2.85-8.14-3.44-4.62-.83-17.52-2.42-21.39-.46,6.1.03,13.51,1.1,19.33,2.16,9.74,1.78,8.82,1.95,9.28,12.07.63,13.88-2.67,11.76-9.34,11.95-6.72.2-13.64.8-20.44.8"/>
          <path class="cls-1" d="M3472.32,1876.02c.89-.99,2.15-3.07.88-4.05-.17-.12-4.15-1.6-4.78-1.84-11-4.13-9.51-3.88-22.07-3.88-3.14,0-9.28-.89-10.59,1.9,1.82.18,3.62-.01,5.32.48,1.72.5,2.29,1.39,3.67,1.7,1.89.43,8.16.19,10.66.38,3.52.27,5.7,1.22,8.79,2.38,1.95.74,6.36,2.68,8.11,2.92"/>
          <path class="cls-1" d="M3485.1,1940.86c.72-1.57-1.39-19.26-1.82-22.43-.49-3.66-.84-7.69-1.1-11.36-.93-13.17-4.69-10.77-12.09-7.2l-16.29,8.43c-5.11,2.6-6.8,2.5-6.45,5.59,1.53-.16,19.08-9.61,22.72-11.58,8.22-4.43,8.93-4.46,9.87,1.68l2.05,15.93c.37,3.7,2,19.07,3.12,20.94"/>
          <path class="cls-1" d="M3526.58,1952.16c-4.75-.94-12.39-.33-17.57-.65-8.95-.57-6.32,1.95-8.98-8.71l-6.68-29.02c-.74,1.23,6.78,39.8,7.66,42.9,1.31.23,23.59-2.91,25.58-4.53"/>
          <path class="cls-1" d="M3864.94,2143.84c-2.18.72-5.38.46-8,.46-3.68,0-2.94-1.15-2.94-7.61,0-4.52,2.35-3.38,5.42-3.38,2.97,0,5.78-1.12,5.78,2.55l-.26,7.97ZM3867.6,2135.46c0-2.97-1.83-4.75-4.88-4.75-10.56,0-11.4-.83-11.12,10.53.15,6.13,3.52,5.46,7.82,5.46,2.08,0,3.73.45,5.58-.3,3.56-1.44,2.59-6.01,2.59-10.94"/>
          <path class="cls-40" d="M3373.86,2160.67l-.34-3.91c-2.83-.21-21.21,3.32-27.1,4.09-2.14.28-2.59.07-2.69,1.83-.13,2.24.54,2.08,2.1,1.86,6.12-.86,24.77-2.92,28.04-3.87"/>
          <path class="cls-40" d="M3350.01,2142.3c4.88-.62,11.35-2.41,16.41-3.47,14.09-2.95,9.73-1.82,13.02-6.99-2.33-.27-13.29,2.9-16.31,3.66-3.69.93-12.82,1.93-13.12,6.8"/>
          <path class="cls-1" d="M3613.72,2076.03c.73.54-.77.03,1.11.56.68.19.63.13,1.38.16l24.31-.02c6.64,0,22.14.75,27.51-.43-.99-.49-24.17-2.18-27.11-2.32-8.57-.41-18.17.92-27.21,2.04"/>
          <path class="cls-40" d="M3855.27,2135.14c1.88-.4,3.93-.43,5.61.09-1.72,1.15-2.73,1.72-4.1,3.35-.84,1-.32.9-1.38,1.43l-.14-4.88ZM3865.2,2135.87c0-3.67-2.81-2.55-5.78-2.55-3.07,0-5.42-1.14-5.42,3.38,0,6.46-.74,7.61,2.94,7.61,2.61,0,5.81.26,8-.46l.26-7.97"/>
          <path class="cls-40" d="M3554.95,2155c-7.56-1.72-10.23,8.42-3.05,9.79,7.96,1.51,10.12-8.18,3.05-9.79"/>
          <path class="cls-40" d="M3437.68,1930.54c-4.22-3.6-10.8.08-11.46-10.31-.42-6.62-1.77-13.6-1.79-20.2-1.36,2.51-.59,13.3-.59,17.33,0,12.53-2.44,14.04,13.84,13.19"/>
          <path class="cls-1" d="M3566.51,2140.6c.94-1.59.53-8.99.85-11.44.47-3.66,1.09-7.23,2.1-10.64-6.64,1.08-8.14,1.25-7.38,4.65.22.96.43,1.54.7,2.62l3.72,14.81"/>
          <path class="cls-1" d="M3268.15,2147.4l-7.31-.3c-3.18,0,.08,3.81,1.33,9.28.52,2.29,1.33,8.12,2.23,9.49.58-3.41.8-6.32,1.57-9.63.48-2.1,2.16-7.09,2.19-8.84"/>
          <path class="cls-1" d="M3438.75,1960.4c-2.89-.12-1.91,3.88-1.91,6.84,0,1.54-.44,7.77.61,8.3l31.74-12.66c1.13-.49,5.23-1.77,5.45-2.87l-17.91,6.47c-2.92,1.07-16.04,6.23-17.87,6.47l-.11-12.55"/>
          <path class="cls-40" d="M3550.23,2138.9c4.74,0,8.38-5.33,4.73-7.76-6.94-4.61-14.51,7.76-4.73,7.76"/>
          <path class="cls-40" d="M3537.98,2180.81c0,5.27,10.74,7.06,10.45.9-.26-5.57-10.45-7.33-10.45-.9"/>
          <path class="cls-40" d="M3311.16,2176.34c-.09-.06-.25-.24-.3-.15l-2.76-.63c-2.81-.49-5.79-1.48-8.09-3.01-1.38-.9-2.96-2.37-3.85-3.57-1.05-1.41-1.88-3.45-2.76-4.62-.95,1.59-.61,5.27-.47,7.4.18,2.56,1.06,4.09,3.15,4.68,2.29.65,12.78.33,15.08-.1"/>
          <path class="cls-40" d="M3385.95,2134.43c2.28,0,8.02-1.61,10.62-2.12,3.4-.67,2.37-.34,3.84-2.8.89-1.5,2.33-2.51,2.49-3.79-2.1.11-7.85,1.79-10.44,2.42-3.21.78-5.39,3.66-6.51,6.29"/>
          <path class="cls-40" d="M3524.26,2187.28c-5.63-1.09-5.29,8.16-.36,9.24,6.25,1.36,6.13-8.12.36-9.24"/>
          <path class="cls-40" d="M3393.17,2153.55c-.93-.34-6.45.89-7.95,1.13-3.79.61-5.84-.28-4.58,4.78l1.04.28c1.7.22,4.03-.47,5.78-.67,2.47-.28,4.07-.29,6.43-1.07l-.72-4.45"/>
          <path class="cls-40" d="M3540.9,2113.81c-5.42-1.82-10.39,6.77-5.66,8.16,5.1,1.51,10.51-6.54,5.66-8.16"/>
          <path class="cls-1" d="M3579.92,1871.41c1.05-1.79-.97-7.87-6-6.71-3.7.86-6.53,2.74-8.8,4.82.66.56,4.9,1.15,6.13,1.15,3.03-.01,3.66-1.62,6.67-1.57.89,1.36.47,1.94,2,2.31"/>
          <path class="cls-1" d="M3596.94,2071.64c-.66-2.7-2.4-5.63-3.56-8.01l-14.99,2.56c1.54,1.17,7.51,1.41,9.79,2.03,3.52.95,5.92,2.61,8.75,3.42"/>
          <path class="cls-1" d="M3553.94,1868.63c.51-1.36-.53-4.06-1.35-5.18-1.07-1.46-2.69-1.84-4.76-1.3-2.84.75-7.98,3.07-8.96,5.12,2.37.64,1.66-.17,3.45-.09.89.04,2.07.44,3.36.48,3.45.11,3.45-1.26,6.56-.95.9,1.53.65,1.61,1.69,1.91"/>
          <path class="cls-1" d="M3435.83,2050.64c-.5,6.83-1.86,13.98,6.87,9.43,2.85-1.48,2.05-4.27,1.91-7.89-.06-1.67-.42-7.13-1.15-8.44-.86,1.56-.68,10.9-1.32,13.83-.99.64-3.09,1.72-4.46,1.22-1.48-1.26.56-7.97-1.86-8.15"/>
          <path class="cls-1" d="M3414.06,2208.23c.93,4.32,4.97,9.09,10.35,8.33,5.03-.71,9.12-7.02,8.33-8.91-1.33,1.14-2.13,2.74-3.77,4.02-7.56,5.94-14.62-3.23-14.62-3.23-.05-.16-.19-.15-.29-.22"/>
          <path class="cls-1" d="M3750.84,2189.52c-3.85-2.77-9.54,3.81-5.61,6.55,3.59,2.49,9.93-3.43,5.61-6.55"/>
          <path class="cls-1" d="M3852.41,2086.69c2.13-2.71.31-3.17,4.02-6.18,1.25-1.02,1.81-1.5.68-3.34-1.3-2.12-4.13-1.75-6.85-1.51-.14,2.47,1.08,9.23,2.14,11.03"/>
          <path class="cls-40" d="M3502,2186.58c0,6.16,6.68,8.63,6.36,1.65-.28-6.01-6.36-8.25-6.36-1.65"/>
          <path class="cls-1" d="M3380.93,2209.04c-.78,3.55,4.23,9.31,8.58,8.18,4.35-1.12,7.89-7.26,6.3-9.78-.23,2.56-6.8,13.56-14.87,1.59"/>
          <path class="cls-1" d="M3768.07,2189.68c-4.67-1.57-6.14,5.68-2.33,7.33,4.76,2.06,6.39-5.95,2.33-7.33"/>
          <path class="cls-40" d="M3348.08,2187.71c-.16-.96-2.82-4.26-3.5-4.92-1.2-1.14-5.4-.58-7.39.08.2,1.71,2.68,3.71,3.77,4.4,1.91,1.2,4.67.87,7.12.44"/>
          <path class="cls-1" d="M3673.09,2137.52c.41-1.26.47-4.62.19-6.06-.28-1.48-.29-1.21-1.79-1.38-2.72-.31-6.84-.41-9.47.08,1.51,1.14,4.13,1.82,6.12,3.23,3.72,2.63,3.4,3.87,4.94,4.13"/>
          <path class="cls-1" d="M3353.88,1968.47c0-6.91-9.97,2.51-11.69,3.85l-3.25,3.03c1.09-.03.74,0,1.87-.68.54-.32,1-.62,1.55-.95,2.43-1.44,7.65-5.6,9.58-6.01l.57,10.9c1.2-2.1,1.36-7.43,1.36-10.15"/>
          <path class="cls-40" d="M3520.92,2109.81c-3.18-2.14-7.53,5.51-4.68,7.35,2.78,1.8,5.55-2.51,5.71-4.83.12-1.69-.12-1.91-1.03-2.53"/>
          <path class="cls-40" d="M3410.15,1989.32c-4.25-1.47-6.59,4.51-2.17,5.99,4.49,1.5,6.69-4.44,2.17-5.99"/>
          <path class="cls-40" d="M3409.03,2049.85c-4.52-1.73-6.71,4.51-2.82,5.75,5.02,1.61,6.88-4.2,2.82-5.75"/>
          <path class="cls-40" d="M3399.35,1950.61c4.6,0,5.61-6.37,1.23-6.41-4.48-.04-5.8,6.41-1.65,6.41h.41"/>
          <path class="cls-40" d="M3397.29,2011.38c5.06,0,6.38-5.76,2.44-6.36-4.94-.75-6.43,6.36-2.44,6.36"/>
          <path class="cls-40" d="M3411.84,1944.39c-4.49-2.47-7.49,4.11-2.97,5.53,4.51,1.42,6.62-3.52,2.97-5.53"/>
          <path class="cls-40" d="M3405.97,1982c-3.95-2.22-7.53,3.79-3.78,5.52,3.95,1.82,7.81-3.26,3.78-5.52"/>
          <path class="cls-40" d="M3404.7,2042.6c-4.47-2.28-7.54,4.19-3.83,5.58,4.13,1.55,7.53-3.69,3.83-5.58"/>
          <path class="cls-40" d="M3404.84,2012.01c-3.87-1.38-7.1,4.75-2.95,5.99,4.31,1.29,7.39-4.4,2.95-5.99"/>
          <path class="cls-40" d="M3418.64,1956.11c0-4.15-6.3-5.57-7.04-1.87-.78,3.88,7.04,6.21,7.04,1.87"/>
          <path class="cls-40" d="M3415.16,2012.85c-4.41-2.73-7.2,3.94-2.54,5.45,4.71,1.53,6.23-3.16,2.54-5.45"/>
          <path class="cls-40" d="M3411.74,1929.16c-4.84-1.79-6.55,4.45-2.26,5.7,5.12,1.49,6.02-4.3,2.26-5.7"/>
          <path class="cls-40" d="M3415.15,1997.57c-4.39-2.09-6.41,3.85-2.27,5.62,5.2,2.22,6.01-3.84,2.27-5.62"/>
          <path class="cls-40" d="M3405.72,1966.6c-4.73-1.28-6.47,5.02-2.56,5.9,4.84,1.1,6.83-4.75,2.56-5.9"/>
          <path class="cls-40" d="M3401.27,1959.79c-3.97-1.9-7.35,4.53-3.65,5.87,3.35,1.22,8.23-3.68,3.65-5.87"/>
          <path class="cls-40" d="M3409.12,2034.77c-4.36-1.65-6.28,4.47-2.6,5.74,4.73,1.62,7.18-4,2.6-5.74"/>
          <path class="cls-40" d="M3404.71,1942.41c5.3,0,5.03-5.76,1.09-6.29-4.41-.6-5.61,6.29-1.09,6.29"/>
          <path class="cls-40" d="M3410,2004.69c-4.08-1.98-6.68,3.72-2.89,5.51,3.97,1.88,7.78-3.13,2.89-5.51"/>
          <path class="cls-40" d="M3410.93,1974.55c-4.1-2.32-6.92,3.82-2.95,5.5,3.99,1.69,7.43-2.96,2.95-5.5"/>
          <path class="cls-40" d="M3407.25,1998.98c-2.2-4.49-7.27-1.72-6.9,1.56.21,1.87,2.05,2.84,4.15,2.33,2.18-.52,2.7-1.7,2.76-3.89"/>
          <path class="cls-40" d="M3404.75,2027.3c-3.85-2.06-7.64,4.65-3.21,5.81,4.41,1.15,6.78-3.9,3.21-5.81"/>
          <path class="cls-40" d="M3414.43,2027.85c-4.01-2.11-6.47,3.2-2.65,5.31,1.41.78,4.08.93,4.84-.92.96-2.34-.82-3.67-2.19-4.39"/>
          <path class="cls-40" d="M3418.9,1990.93c-4.37-.97-3.7,5.73.72,6.42,5.13.8,3.64-5.45-.72-6.42"/>
          <path class="cls-40" d="M3416.21,2047.74c1.02-5.75-4.96-6.6-6.29-3.96-1.84,3.64,2.53,6.27,6.29,3.96"/>
          <path class="cls-40" d="M3418.01,2051.19c-4.46-1.44-4.89,5.41.08,6.24,4.64.78,4.23-4.85-.08-6.24"/>
          <path class="cls-40" d="M3394.79,2041.2c4.32,1.7,8.06-2.25,6.02-4.9-1.82-2.37-7.82-.37-6.02,4.9"/>
          <path class="cls-40" d="M3401.24,1975.08c-3.66-2.14-7.46,3.91-4.54,5.54,1.7.94,4.16-.08,5.07-1.06,1.05-1.14,1.72-3.16-.53-4.48"/>
          <path class="cls-40" d="M3401.5,1956.14c1.21.85,2.39,2.05,4.69,1.08,1.36-.57,2.78-2,1.9-4.04-1.23-2.86-7.2-3.07-6.6,2.96"/>
          <path class="cls-40" d="M3401.38,1929.2c-4.23-.95-6.53,5.76-2.39,6.22,4.18.47,7.14-5.15,2.39-6.22"/>
          <path class="cls-40" d="M3409.89,2019.77c-4.2-2.05-7.02,4.16-2.76,5.66,4.32,1.51,6.75-3.72,2.76-5.66"/>
          <path class="cls-40" d="M3399.4,2050.8c-3.76-1.71-7.81,4.69-3.87,6.04,3.49,1.19,7.74-4.26,3.87-6.04"/>
          <path class="cls-40" d="M3396.88,2026.56c5.1,0,6.15-5.5,2.71-6.37-4.51-1.14-6.69,6.37-2.71,6.37"/>
          <path class="cls-40" d="M3414.61,1982.37c-4.53-1.07-5.08,5.08-.53,6.04,4.74,1,5.21-4.93.53-6.04"/>
          <path class="cls-40" d="M3395.69,1995.36c3.95,2.08,7.9-1.22,6.35-4.41-.96-1.98-7.51-2-6.35,4.41"/>
          <path class="cls-40" d="M3415.73,1967.6c-4.74-2.21-5.95,3.92-2.02,5.51,3.58,1.45,5.58-1.35,3.98-3.96-.73-1.2-1.04-1.12-1.95-1.55"/>
          <path class="cls-40" d="M3419.96,2012.37c4.86,0,1.67-6.73-2.03-6.44-4.08.31-2.77,6.44,2.03,6.44"/>
          <path class="cls-40" d="M3421.2,1982.39c3.97,0,1.25-8.84-4.59-5.72-.91,2.93.83,5.72,3.77,5.72h.82"/>
          <path class="cls-40" d="M3419.79,1961c-4.1-1.5-4.22,4.87-.12,6.19,4.91,1.59,5.14-4.36.12-6.19"/>
          <path class="cls-40" d="M3414.84,2038.15c.23,3.54,4.61,5.87,6.49,3.41,1.05-1.39.23-5.9-5.17-5.49l-1.32,2.08"/>
          <path class="cls-40" d="M3411.07,1959.44c-4.24-2.15-6.41,3.85-2.75,5.43,4.15,1.79,7.32-3.12,2.75-5.43"/>
          <path class="cls-40" d="M3418.66,1942.44c.86-4.67-2.72-6.16-6.29-4.67-1.15,4.65,2.62,7.01,6.29,4.67"/>
          <path class="cls-40" d="M3421.91,2026.5c.41-3.17-1.42-6.48-6.26-5.02-1.32,4.6,2.47,7.54,6.26,5.02"/>
          <path class="cls-40" d="M3493,2144.53c0-7.07-7.49-.91-3.81,5.29,3.28.27,3.81-2.54,3.81-5.29"/>
          <path class="cls-40" d="M3494.11,2174.09c2.19-3.21-.26-9.59-2.95-8.28-1.94.95-1.52,8.61,2.95,8.28"/>
          <path class="cls-1" d="M3485.29,2228.66c-.5-1.31-4.8-4.42-6.26-5.2-.53.33-4.32,4.29-4.6,5.19h10.86"/>
          <path class="cls-1" d="M3337.51,2062.01c.82-1.03,1.03-4.36,1.13-5.8.2-2.72,1.57-10.99-3.72-8.71-1.74.75-3.06,2.61-3.33,2.76,2.1-.28,3.72-2.11,5.21-1.09.95,2.59-.53,9.41.71,12.84"/>
          <path class="cls-40" d="M3433.57,1953.21c-4.55,0-7.13-2.96-9.48-4.54.58,5.66,9.15,9.49,13.82,4.07l-3.51.47h-.82"/>
          <path class="cls-1" d="M3782.84,2184.11c0-4.31-6.24-2.71-5.16.48,1.05,3.11,5.16,4,5.16-.48"/>
          <path class="cls-40" d="M3330.67,2166.21c1.67.22,3.66-.28,5.3-.46,2.65-.29,2.69-.78,1.76-3.45l-7.22,1.27.16,2.64"/>
          <path class="cls-1" d="M3599.92,1875.85c-.31-2.28-1.41-4.24-3.39-4.81-1.27-.36-4.46.36-5.37,1.36.59,1.39,3.81,1.9,4.4,1.9,1.41,0,.84-.76,2.32.29,1.6,1.13-.61.7,2.03,1.26"/>
          <path class="cls-1" d="M3861.69,2091.55c-.02-1.18-.58-2.49-1.11-3.39-3.12-.04-3.46-.21-6.61.23l1.01.81c1.31.79,5.47,2.42,6.71,2.36"/>
          <path class="cls-1" d="M3855.41,2140.02c1.06-.54.54-.43,1.38-1.43,1.37-1.63,2.38-2.2,4.1-3.35-1.68-.52-3.73-.49-5.61-.09l.14,4.88"/>
          <path class="cls-40" d="M3338.2,2144.73c2.56.24,5.25-1.28,5.39-4.22-2.29.17-5.09,2.57-5.42,3.41l.03.81"/>
          <path class="cls-1" d="M3618.69,1880.29c2.54-.94-3.4-29.09-11.82-46.74-.82-2.81-2.21-5.2-3.54-7.59-.57-1.03-1.14-2.2-1.87-3.48-2.49-4.36-10.03.99-7.45,5.52,5.6,9.84,17.24,35.91,17.11,47.21-.03,2.5-.4,3.04,2.02,3.38,1.51-2.56-.03-14.04.82-16.05,2.25,5.91-1.63,20.14,4.73,17.74"/>
        </g>
        <g>
          <path class="cls-59" d="M755.83,240.2c-1.11,1.85-21.19,2.44-44.86,1.33s-41.96-3.51-40.86-5.35,21.19-2.44,44.86-1.33c23.67,1.11,41.96,3.51,40.86,5.35Z"/>
          <path class="cls-27" d="M729.95,242.86c-1.11,1.85-21.19,2.44-44.86,1.33s-41.96-3.51-40.86-5.35,21.19-2.44,44.86-1.33c23.67,1.11,41.96,3.51,40.86,5.35Z"/>
          <path class="cls-31" d="M704.07,245.53c-1.11,1.85-21.19,2.44-44.86,1.33s-41.96-3.51-40.86-5.35,21.19-2.44,44.86-1.33c23.67,1.11,41.96,3.51,40.86,5.35Z"/>
          <path class="cls-47" d="M678.19,248.19c-1.11,1.85-21.19,2.44-44.86,1.33s-41.96-3.51-40.86-5.35,21.19-2.44,44.86-1.33c23.67,1.11,41.96,3.51,40.86,5.35Z"/>
          <path class="cls-55" d="M652.31,250.86c-1.11,1.85-21.19,2.44-44.86,1.33-23.67-1.11-41.96-3.51-40.86-5.35s21.19-2.44,44.86-1.33c23.67,1.11,41.96,3.51,40.86,5.35Z"/>
          <path class="cls-13" d="M626.43,253.52c-1.11,1.85-21.19,2.44-44.86,1.33s-41.96-3.51-40.86-5.35,21.19-2.44,44.86-1.33c23.67,1.11,41.96,3.51,40.86,5.35Z"/>
          <path class="cls-30" d="M600.55,256.18c-1.11,1.85-21.19,2.44-44.86,1.33s-41.96-3.51-40.86-5.35,21.19-2.44,44.86-1.33c23.67,1.11,41.96,3.51,40.86,5.35Z"/>
          <path class="cls-39" d="M574.67,258.85c-1.11,1.85-21.19,2.44-44.86,1.33-23.67-1.11-41.96-3.51-40.86-5.35s21.19-2.44,44.86-1.33c23.67,1.11,41.96,3.51,40.86,5.35Z"/>
          <path class="cls-4" d="M548.79,261.51c-1.11,1.85-21.19,2.44-44.86,1.33-23.67-1.11-41.96-3.51-40.86-5.35s21.19-2.44,44.86-1.33c23.67,1.11,41.96,3.51,40.86,5.35Z"/>
          <path class="cls-36" d="M522.91,264.18c-1.11,1.85-21.19,2.44-44.86,1.33-23.67-1.11-41.96-3.51-40.86-5.35s21.19-2.44,44.86-1.33,41.96,3.51,40.86,5.35Z"/>
          <path class="cls-28" d="M497.03,266.84c-1.11,1.85-21.19,2.44-44.86,1.33s-41.96-3.51-40.86-5.35,21.19-2.44,44.86-1.33c23.67,1.11,41.96,3.51,40.86,5.35Z"/>
          <path class="cls-62" d="M471.15,269.51c-1.11,1.85-21.19,2.44-44.86,1.33-23.67-1.11-41.96-3.51-40.86-5.35s21.19-2.44,44.86-1.33c23.67,1.11,41.96,3.51,40.86,5.35Z"/>
          <path class="cls-6" d="M445.27,272.17c-1.11,1.85-21.19,2.44-44.86,1.33-23.67-1.11-41.96-3.51-40.86-5.35s21.19-2.44,44.86-1.33c23.67,1.11,41.96,3.51,40.86,5.35Z"/>
          <path class="cls-12" d="M419.39,274.83c-1.11,1.85-21.19,2.44-44.86,1.33s-41.96-3.51-40.86-5.35,21.19-2.44,44.86-1.33c23.67,1.11,41.96,3.51,40.86,5.35Z"/>
          <path class="cls-24" d="M393.51,277.5c-1.11,1.85-21.19,2.44-44.86,1.33s-41.96-3.51-40.86-5.35,21.19-2.44,44.86-1.33c23.67,1.11,41.96,3.51,40.86,5.35Z"/>
          <path class="cls-22" d="M367.63,280.16c-1.11,1.85-21.19,2.44-44.86,1.33-23.67-1.11-41.96-3.51-40.86-5.35s21.19-2.44,44.86-1.33c23.67,1.11,41.96,3.51,40.86,5.35Z"/>
          <path class="cls-57" d="M341.75,282.83c-1.11,1.85-21.19,2.44-44.86,1.33-23.67-1.11-41.96-3.51-40.86-5.35s21.19-2.44,44.86-1.33c23.67,1.11,41.96,3.51,40.86,5.35Z"/>
          <path class="cls-45" d="M315.87,285.49c-1.11,1.85-21.19,2.44-44.86,1.33-23.67-1.11-41.96-3.51-40.86-5.35s21.19-2.44,44.86-1.33,41.96,3.51,40.86,5.35Z"/>
          <path class="cls-53" d="M289.99,288.15c-1.11,1.85-21.19,2.44-44.86,1.33-23.67-1.11-41.96-3.51-40.86-5.35s21.19-2.44,44.86-1.33c23.67,1.11,41.96,3.51,40.86,5.35Z"/>
          <path class="cls-5" d="M264.11,290.82c-1.11,1.85-21.19,2.44-44.86,1.33-23.67-1.11-41.96-3.51-40.86-5.35s21.19-2.44,44.86-1.33c23.67,1.11,41.96,3.51,40.86,5.35Z"/>
          <path class="cls-52" d="M238.23,293.48c-1.11,1.85-21.19,2.44-44.86,1.33-23.67-1.11-41.96-3.51-40.86-5.35s21.19-2.44,44.86-1.33c23.67,1.11,41.96,3.51,40.86,5.35Z"/>
          <path class="cls-14" d="M212.35,296.15c-1.11,1.85-21.19,2.44-44.86,1.33-23.67-1.11-41.96-3.51-40.86-5.35s21.19-2.44,44.86-1.33c23.67,1.11,41.96,3.51,40.86,5.35Z"/>
        </g>
        <path class="cls-51" d="M761.82,220.89l-13.35,2.09.19,2.04,14.73,5.69c13.28,12.95,77.94,21.06,118.72,17.22,13.66-1.28,38.35-4.18,67.4-7.64,1.46,3.02,4.65,4.97,8.2,4.63l21.28-2c.69.47.89,1.4.39,2.09l-2.96,4.08c-.38,0-.72,0-1.1.03-3.85.36-6.68,3.79-6.32,7.64s3.79,6.68,7.64,6.32,6.68-3.79,6.32-7.64c-.17-1.77-1-3.33-2.21-4.47,1.21-2.97,3-7.4,3.02-7.55.05-.31.02-.65-.13-.94l9.24-.87c.88.41,1.79.78,2.72,1.04.03.3-.06.61-.26.86l-2.96,4.08c-.38,0-.72,0-1.1.03-3.85.36-6.68,3.79-6.32,7.64s3.79,6.68,7.64,6.32,6.68-3.79,6.32-7.64c-.17-1.77-1-3.33-2.21-4.47.77-1.94,1.82-4.55,2.47-6.13,1.15.08,2.29.09,3.46-.02l61.52-5.79c2.98-.28,5.17-2.92,4.89-5.9l-.51-5.47c11.07-1.27,21.58-2.45,31.15-3.46l.09.91c.2,2.11,2.1,3.68,4.21,3.49l3.17-.3,5.48,3.59c.69.47.89,1.4.39,2.09l-2.96,4.08c-.38,0-.72,0-1.1.03-3.85.36-6.68,3.79-6.32,7.64s3.79,6.68,7.64,6.32,6.68-3.79,6.32-7.64c-.17-1.77-1-3.33-2.21-4.47,1.2-2.97,3-7.4,3.02-7.55.07-.46-.05-.98-.47-1.4l-3.39-3.26,16.45-1.55c2.11-.2,3.68-2.1,3.49-4.21l-.11-1.21c51.85-6.29,59.41-19.4,58.66-27.36-.8-8.45-28.95-13.6-28.95-13.6-1.97-4.76-11.17-7.09-26.79-5.62-46.81,4.4-260.25,24.49-278.84,26.24-18.6,1.75-23.05-2.7-23.05-2.7l-45.38-27.73c-10.05-6.13-22.02-8.32-33.56-6.05l-19.21,3.75,25.62,54.71ZM1112.52,243.34c.15,1.62-1.04,3.1-2.7,3.26s-3.1-1.04-3.26-2.7c-.15-1.62,1.04-3.1,2.7-3.26s3.14,1.04,3.26,2.7ZM1084.67,190.05c-.09-.98.63-1.85,1.61-1.94l4.11-.39c.98-.09,1.85.63,1.94,1.61l.39,4.11c.09.98-.63,1.85-1.61,1.94l-4.11.39c-.98.09-1.85-.63-1.94-1.61l-.39-4.11ZM1063.89,192.01c-.09-.98.63-1.85,1.61-1.94l4.11-.39c.98-.09,1.85.63,1.94,1.61l.39,4.11c.09.98-.63,1.85-1.61,1.94l-4.11.39c-.98.09-1.85-.63-1.94-1.61l-.39-4.11ZM1042.12,194.06c-.09-.98.63-1.85,1.61-1.94l4.11-.39c.98-.09,1.85.63,1.94,1.61l.39,4.11c.09.98-.63,1.85-1.61,1.94l-4.11.39c-.98.09-1.85-.63-1.94-1.61l-.39-4.11ZM1020.36,196.11c-.09-.98.63-1.85,1.61-1.94l4.11-.39c.98-.09,1.85.63,1.94,1.61l.39,4.11c.09.98-.63,1.85-1.61,1.94l-4.11.39c-.98.09-1.85-.63-1.94-1.61l-.39-4.11ZM998.55,198.16c-.09-.98.63-1.85,1.61-1.94l4.11-.39c.98-.09,1.85.63,1.94,1.61l.39,4.11c.09.98-.63,1.85-1.61,1.94l-4.11.39c-.98.09-1.85-.63-1.94-1.61l-.39-4.11ZM994.9,254.41c.15,1.62-1.08,3.11-2.7,3.26s-3.1-1.04-3.26-2.7c-.15-1.62,1.04-3.1,2.7-3.26s3.14,1.04,3.26,2.7ZM976.79,200.21c-.09-.98.63-1.85,1.61-1.94l4.11-.39c.98-.09,1.85.63,1.94,1.61l.39,4.11c.09.98-.63,1.85-1.61,1.94l-4.11.39c-.98.09-1.85-.63-1.94-1.61l-.39-4.11ZM978.99,255.9c.15,1.62-1.08,3.11-2.7,3.26s-3.1-1.04-3.26-2.7c-.15-1.62,1.04-3.1,2.7-3.26s3.14,1.04,3.26,2.7ZM955.02,202.25c-.09-.98.63-1.85,1.61-1.94l4.11-.39c.98-.09,1.85.63,1.94,1.61l.39,4.11c.09.98-.63,1.85-1.61,1.94l-4.11.39c-.98.09-1.85-.63-1.94-1.61l-.39-4.11ZM933.64,208.41l-.39-4.11c-.09-.98.63-1.85,1.61-1.94l4.11-.39c.98-.09,1.85.63,1.94,1.61l.39,4.11c.09.98-.63,1.85-1.61,1.94l-4.11.39c-.98.09-1.85-.63-1.94-1.61h0ZM911.49,206.35c-.09-.98.63-1.85,1.61-1.94l4.11-.39c.98-.09,1.85.63,1.94,1.61l.39,4.11c.09.98-.63,1.85-1.61,1.94l-4.11.39c-.98.09-1.85-.63-1.94-1.61l-.39-4.11Z"/>
        <g>
          <polygon class="cls-58" points="1335.44 927.24 1369.99 904.94 1517 904.94 1480.88 927.24 1335.44 927.24"/>
          <rect class="cls-58" x="1375.85" y="891.22" width="5.13" height="11.2"/>
          <polygon class="cls-58" points="1417.62 881.7 1414.39 877.93 1395.33 877.93 1398.02 881.7 1417.62 881.7"/>
          <path class="cls-58" d="M1485.59,902.43l-36.44-18.22h-65.65v18.22h102.09ZM1447.89,888.71l20.73,10.58h-18.43l-6.91-10.58h4.61ZM1413.13,888.82h25.76l5.65,10.47h-31.41v-10.47Z"/>
        </g>
        <g>
          <path class="cls-11" d="M1367.55,902.51c.89,1.16-1.32,1.64-4.94,1.08-3.62-.56-7.27-1.96-8.16-3.11-.89-1.16,1.32-1.64,4.94-1.08,3.62.56,7.27,1.96,8.16,3.11Z"/>
          <path class="cls-50" d="M1365.03,902.89c.89,1.16-1.32,1.64-4.94,1.08s-7.27-1.96-8.16-3.11c-.89-1.16,1.32-1.64,4.94-1.08s7.27,1.96,8.16,3.11Z"/>
          <path class="cls-64" d="M1362.51,903.26c.89,1.16-1.32,1.64-4.94,1.08s-7.27-1.96-8.16-3.11c-.89-1.16,1.32-1.64,4.94-1.08,3.62.56,7.27,1.96,8.16,3.11Z"/>
          <path class="cls-18" d="M1360,903.63c.89,1.16-1.32,1.64-4.94,1.08s-7.27-1.96-8.16-3.11c-.89-1.16,1.32-1.64,4.94-1.08,3.62.56,7.27,1.96,8.16,3.11Z"/>
          <path class="cls-34" d="M1357.48,904c.89,1.16-1.32,1.64-4.94,1.08s-7.27-1.96-8.16-3.11c-.89-1.16,1.32-1.64,4.94-1.08s7.27,1.96,8.16,3.11Z"/>
          <path class="cls-7" d="M1354.96,904.37c.89,1.16-1.32,1.64-4.94,1.08-3.62-.56-7.27-1.96-8.16-3.11-.89-1.16,1.32-1.64,4.94-1.08s7.27,1.96,8.16,3.11Z"/>
          <path class="cls-37" d="M1352.44,904.74c.89,1.16-1.32,1.64-4.94,1.08s-7.27-1.96-8.16-3.11c-.89-1.16,1.32-1.64,4.94-1.08s7.27,1.96,8.16,3.11Z"/>
          <path class="cls-26" d="M1349.93,905.11c.89,1.16-1.32,1.64-4.94,1.08s-7.27-1.96-8.16-3.11c-.89-1.16,1.32-1.64,4.94-1.08,3.62.56,7.27,1.96,8.16,3.11Z"/>
          <path class="cls-17" d="M1347.41,905.48c.89,1.16-1.32,1.64-4.94,1.08-3.62-.56-7.27-1.96-8.16-3.11-.89-1.16,1.32-1.64,4.94-1.08s7.27,1.96,8.16,3.11Z"/>
          <path class="cls-3" d="M1344.89,905.85c.89,1.16-1.32,1.64-4.94,1.08-3.62-.56-7.27-1.96-8.16-3.11-.89-1.16,1.32-1.64,4.94-1.08s7.27,1.96,8.16,3.11Z"/>
          <path class="cls-48" d="M1342.37,906.23c.89,1.16-1.32,1.64-4.94,1.08s-7.27-1.96-8.16-3.11c-.89-1.16,1.32-1.64,4.94-1.08s7.27,1.96,8.16,3.11Z"/>
          <path class="cls-33" d="M1339.86,906.6c.89,1.16-1.32,1.64-4.94,1.08s-7.27-1.96-8.16-3.11c-.89-1.16,1.32-1.64,4.94-1.08s7.27,1.96,8.16,3.11Z"/>
          <path class="cls-20" d="M1337.34,906.97c.89,1.16-1.32,1.64-4.94,1.08s-7.27-1.96-8.16-3.11c-.89-1.16,1.32-1.64,4.94-1.08s7.27,1.96,8.16,3.11Z"/>
          <path class="cls-41" d="M1334.82,907.34c.89,1.16-1.32,1.64-4.94,1.08s-7.27-1.96-8.16-3.11c-.89-1.16,1.32-1.64,4.94-1.08s7.27,1.96,8.16,3.11Z"/>
          <path class="cls-42" d="M1332.3,907.71c.89,1.16-1.32,1.64-4.94,1.08s-7.27-1.96-8.16-3.11c-.89-1.16,1.32-1.64,4.94-1.08s7.27,1.96,8.16,3.11Z"/>
          <path class="cls-63" d="M1329.79,908.08c.89,1.16-1.32,1.64-4.94,1.08-3.62-.56-7.27-1.96-8.16-3.11-.89-1.16,1.32-1.64,4.94-1.08s7.27,1.96,8.16,3.11Z"/>
          <path class="cls-15" d="M1327.27,908.45c.89,1.16-1.32,1.64-4.94,1.08s-7.27-1.96-8.16-3.11c-.89-1.16,1.32-1.64,4.94-1.08,3.62.56,7.27,1.96,8.16,3.11Z"/>
          <path class="cls-46" d="M1324.75,908.82c.89,1.16-1.32,1.64-4.94,1.08-3.62-.56-7.27-1.96-8.16-3.11s1.32-1.64,4.94-1.08,7.27,1.96,8.16,3.11Z"/>
          <path class="cls-16" d="M1322.23,909.19c.89,1.16-1.32,1.64-4.94,1.08s-7.27-1.96-8.16-3.11c-.89-1.16,1.32-1.64,4.94-1.08s7.27,1.96,8.16,3.11Z"/>
          <path class="cls-21" d="M1319.72,909.56c.89,1.16-1.32,1.64-4.94,1.08s-7.27-1.96-8.16-3.11c-.89-1.16,1.32-1.64,4.94-1.08s7.27,1.96,8.16,3.11Z"/>
          <path class="cls-38" d="M1317.2,909.94c.89,1.16-1.32,1.64-4.94,1.08-3.62-.56-7.27-1.96-8.16-3.11-.89-1.16,1.32-1.64,4.94-1.08s7.27,1.96,8.16,3.11Z"/>
          <path class="cls-14" d="M1314.68,910.31c.89,1.16-1.32,1.64-4.94,1.08s-7.27-1.96-8.16-3.11c-.89-1.16,1.32-1.64,4.94-1.08s7.27,1.96,8.16,3.11Z"/>
        </g>
      </g>
    </g>
  </g>
</svg>